<svg width="64" height="65" viewBox="0 0 64 65" fill="none" xmlns="http://www.w3.org/2000/svg">
<g clip-path="url(#clip0_2149_3724)">
<path d="M14.7402 28.2749C14.7402 33.2335 16.8429 37.994 20.5087 41.3361C23.41 43.9821 25.0744 47.6881 25.0744 51.5039V52.8583C24.3607 53.503 23.9034 54.4257 23.9034 55.4611C23.9034 56.9629 24.8525 58.2382 26.1793 58.7431C25.8841 59.2578 25.7021 59.8455 25.7021 60.4802C25.7021 62.4216 27.281 64.0006 29.2218 64.0006H35.6508C37.5915 64.0006 39.1705 62.4216 39.1705 60.4802C39.1705 59.8455 38.9884 59.2578 38.6933 58.7431C40.0201 58.2382 40.9692 56.9629 40.9692 55.4611C40.9692 54.4257 40.5119 53.503 39.7981 52.8583V51.519C39.7981 47.7315 41.4981 44.0427 44.5837 41.1328C48.2284 37.6953 50.2481 32.8499 50.1271 27.8394C49.8994 18.4039 42.0337 10.6611 32.5929 10.5795C32.5389 10.5789 32.4876 10.5789 32.435 10.5789C27.7363 10.5789 23.3179 12.3966 19.9784 15.7078C16.6008 19.0565 14.7402 23.5196 14.7402 28.2749ZM35.6508 61.9795H29.2218C28.3955 61.9795 27.7231 61.3071 27.7231 60.4802C27.7231 59.6539 28.3955 58.9815 29.2218 58.9815H35.6508C36.4771 58.9815 37.1494 59.6539 37.1494 60.4802C37.1494 61.3071 36.4771 61.9795 35.6508 61.9795ZM37.4481 56.9604H35.6508H29.2218H27.4244C26.5968 56.9604 25.9244 56.2881 25.9244 55.4611C25.9244 54.6341 26.5968 53.9618 27.4244 53.9618H37.4481C38.2758 53.9618 38.9481 54.6341 38.9481 55.4611C38.9481 56.2881 38.2758 56.9604 37.4481 56.9604ZM32.435 12.5999C32.4823 12.5999 32.5284 12.5999 32.5744 12.6006C40.7955 12.6716 47.9073 19.6723 48.106 27.8881C48.2139 32.3269 46.4244 36.6183 43.1968 39.6624C39.7021 42.9578 37.7771 47.169 37.7771 51.519V51.9407H37.4481H33.4468V36.5528C36.5362 36.0747 38.8889 33.5733 38.8889 31.4499C38.8889 30.892 38.4363 30.4394 37.8784 30.4394C37.3205 30.4394 36.8679 30.892 36.8679 31.4499C36.8679 32.5394 34.9863 34.6321 32.4113 34.6321C29.8652 34.6321 28.0047 32.5394 28.0047 31.4499C28.0047 30.892 27.5521 30.4394 26.9942 30.4394C26.4363 30.4394 25.9837 30.892 25.9837 31.4499C25.9837 33.5649 28.4075 36.0818 31.4258 36.5543V51.9407H27.4244H27.0955V51.5039C27.0955 47.121 25.1915 42.871 21.8705 39.8427C18.6231 36.8821 16.7613 32.6664 16.7613 28.2749C16.7613 24.0624 18.4087 20.1091 21.4008 17.1433C24.36 14.2104 28.2731 12.5999 32.435 12.5999Z" fill="black"/>
<path d="M33.4468 4.64342V1.01053C33.4468 0.452632 32.9942 0 32.4363 0C31.8784 0 31.4258 0.452632 31.4258 1.01053V4.64342C31.4258 5.20132 31.8784 5.65395 32.4363 5.65395C32.9942 5.65395 33.4468 5.20132 33.4468 4.64342Z" fill="black"/>
<path d="M52.5438 6.85929C52.149 6.46586 51.5096 6.46323 51.1148 6.85929L48.3253 9.6481C47.9306 10.0428 47.9306 10.6823 48.3253 11.077C48.5227 11.2744 48.7806 11.3731 49.0398 11.3731C49.299 11.3731 49.5569 11.2744 49.7543 11.077L52.5438 8.28823C52.9385 7.8935 52.9385 7.25402 52.5438 6.85929Z" fill="black"/>
<path d="M12.3273 47.0717C12.5247 47.269 12.7826 47.3677 13.0418 47.3677C13.2997 47.3677 13.5589 47.269 13.7563 47.0717L16.5457 44.2829C16.9405 43.8881 16.9405 43.2487 16.5457 42.8539C16.151 42.4592 15.5115 42.4592 15.1168 42.8539L12.3273 45.6427C11.9326 46.0375 11.9326 46.6769 12.3273 47.0717Z" fill="black"/>
<path d="M56.2273 27.9764H59.8602C60.4181 27.9764 60.8707 27.5237 60.8707 26.9658C60.8707 26.408 60.4181 25.9553 59.8602 25.9553H56.2273C55.6694 25.9553 55.2168 26.408 55.2168 26.9658C55.2168 27.5237 55.6694 27.9764 56.2273 27.9764Z" fill="black"/>
<path d="M8.64342 25.9553H5.01053C4.45263 25.9553 4 26.408 4 26.9658C4 27.5237 4.45263 27.9764 5.01053 27.9764H8.64342C9.20132 27.9764 9.65395 27.5237 9.65395 26.9658C9.65395 26.408 9.20132 25.9553 8.64342 25.9553Z" fill="black"/>
<path d="M49.7543 42.8539C49.3596 42.4592 48.7201 42.4592 48.3253 42.8539C47.9306 43.2487 47.9306 43.8881 48.3253 44.2829L51.1148 47.0717C51.3122 47.269 51.5701 47.3677 51.8293 47.3677C52.0885 47.3677 52.3464 47.269 52.5438 47.0717C52.9385 46.6769 52.9385 46.0375 52.5438 45.6427L49.7543 42.8539Z" fill="black"/>
<path d="M13.7563 6.85929C13.3615 6.46455 12.722 6.46455 12.3273 6.85929C11.9326 7.25402 11.9326 7.8935 12.3273 8.28823L15.1168 11.077C15.3141 11.2744 15.572 11.3731 15.8313 11.3731C16.0905 11.3731 16.3484 11.2744 16.5457 11.077C16.9405 10.6823 16.9405 10.0428 16.5457 9.6481L13.7563 6.85929Z" fill="black"/>
</g>
<defs>
<clipPath id="clip0_2149_3724">
<rect width="64" height="64" fill="white" transform="translate(0 0.5)"/>
</clipPath>
</defs>
</svg>
