<svg width="61" height="72" viewBox="0 0 61 72" fill="none" xmlns="http://www.w3.org/2000/svg">
<path d="M59.7356 39.4898C59.7656 39.4898 59.7956 39.4898 59.8223 39.4864C60.0527 39.4631 60.2663 39.3496 60.4132 39.1693C60.5601 38.9924 60.6302 38.7621 60.6068 38.5317C59.6421 28.9076 54.1375 20.3252 45.7921 15.4388C49.0301 13.536 50.2051 10.8488 51.3534 8.20839C52.4283 5.73818 53.4431 3.40479 56.1503 1.59883H56.147C56.4942 1.36516 56.6277 0.921187 56.4675 0.53729C56.3072 0.153393 55.9 -0.0635721 55.4927 0.0165349C55.3258 0.0499168 55.1656 0.0832978 54.9987 0.120014C46.0787 1.9393 37.974 4.28269 35.5206 11.4866C31.7585 7.12694 25.5692 7.364 19.5479 7.60764C14.6508 7.80792 9.59049 8.01156 5.48088 5.95858H5.48422C5.44416 5.94523 5.4041 5.93188 5.36405 5.92186C5.32733 5.90851 5.28727 5.89516 5.24721 5.88848C5.17711 5.87513 5.10701 5.87513 5.03691 5.8818C5.00353 5.87847 4.97015 5.87847 4.93676 5.8818C4.83328 5.89849 4.73314 5.93521 4.64301 5.98528L4.62965 5.9953L4.63299 5.99864C4.55288 6.04537 4.47943 6.1088 4.41935 6.1789C4.41601 6.18891 4.40933 6.19559 4.406 6.2056C4.39932 6.21228 4.39264 6.21562 4.38931 6.22229C4.37261 6.24566 4.36928 6.27237 4.35592 6.29573C4.31587 6.35582 4.28582 6.42592 4.26245 6.49603C4.25244 6.53275 4.24576 6.5728 4.24242 6.61286C4.23241 6.67629 4.22907 6.73971 4.23241 6.80647C4.23575 6.84653 4.24242 6.88659 4.25244 6.92664C4.26579 6.98673 4.28916 7.05015 4.31586 7.1069C4.33255 7.14362 4.35258 7.18034 4.37595 7.21707C4.38596 7.23042 4.3893 7.25045 4.40266 7.2638H4.39932C6.90294 10.7488 9.86051 13.8834 13.1988 16.5803C8.99269 19.4611 5.58109 23.3534 3.27471 27.8964C3.27137 27.9031 3.26803 27.9065 3.26469 27.9131C3.22797 27.9866 3.19793 28.06 3.16121 28.1334C2.96426 28.5274 2.77399 28.9279 2.59373 29.3386C2.51362 29.5222 2.43684 29.7058 2.36006 29.8894C2.29997 30.0362 2.23321 30.1764 2.17312 30.3266C2.09301 30.5303 2.01956 30.7239 1.94613 30.9175C1.86602 31.1311 1.78924 31.3414 1.7158 31.5551C1.67574 31.6753 1.62901 31.7954 1.59229 31.9023C1.55557 32.0124 1.52219 32.1292 1.48547 32.2427C1.39868 32.5165 1.30521 32.7869 1.22509 33.0639C1.165 33.2676 1.11493 33.4779 1.05819 33.6848C0.931335 34.1588 0.811166 34.6362 0.711019 35.1136C0.701005 35.1637 0.687652 35.2137 0.677638 35.2671L0.667623 35.2705C0.664285 35.2872 0.660947 35.3039 0.657609 35.3205C0.607536 35.5442 0.560804 35.7812 0.517409 36.0282C0.487366 36.1951 0.457321 36.362 0.430619 36.5323C0.397238 36.7192 0.367194 36.8995 0.350503 37.0564C0.303769 37.3167 0.263714 37.5738 0.237009 37.8308L0.226994 37.9109C0.213642 38.0211 0.203626 38.1279 0.190274 38.2381C0.163568 38.4918 0.136864 38.7455 0.120173 38.9825C0.0934682 39.2395 0.0734382 39.4932 0.0567477 39.7669V39.777C0.0200279 40.3878 0 41.0021 0 41.6162C0 42.2271 0.0233668 42.828 0.0600867 43.4289C0.0701005 43.6091 0.0767776 43.786 0.0934682 43.9696V43.993C0.0968061 44.0464 0.100144 44.0998 0.103483 44.1566V44.2334C0.110158 44.2968 0.120173 44.3569 0.126849 44.4203L0.130188 44.4136C0.24035 45.612 0.420603 46.8004 0.670965 47.9755C0.68098 48.0188 0.687657 48.0622 0.694333 48.1056C0.764434 48.4361 0.844548 48.7632 0.928005 49.0937L0.95471 49.1905C0.978078 49.2773 1.00812 49.3641 1.03149 49.4575C1.11828 49.7947 1.21508 50.1285 1.31523 50.459C1.37532 50.656 1.43874 50.8529 1.50551 51.0499C1.55224 51.1934 1.5923 51.3369 1.64237 51.4805C1.64905 51.4972 1.6624 51.5139 1.66908 51.5306L1.67242 51.5372C4.1093 58.5473 9.01297 64.4292 15.466 68.091C16.0034 68.3915 16.5408 68.6685 17.0816 68.9322C17.1484 68.9656 17.2151 68.999 17.2852 69.0324C18.1699 69.4563 19.0578 69.8369 19.9391 70.1573C20.3864 70.3176 20.8337 70.4711 21.3411 70.6314C21.6115 70.7182 21.8819 70.7983 22.1589 70.8784C22.8967 71.0787 23.581 71.2422 24.2453 71.3758C24.3321 71.3958 24.4189 71.4092 24.499 71.4258L24.6292 71.4525C24.7527 71.4759 24.8729 71.5026 24.9964 71.5227C25.5004 71.6094 26.0045 71.6962 26.4785 71.753C26.7689 71.7997 27.066 71.8264 27.3732 71.8565C27.6169 71.8798 27.8706 71.8932 28.1209 71.9099C28.2778 71.9232 28.4347 71.9366 28.5916 71.9433C28.675 71.9499 28.7485 71.9566 28.8319 71.9599L29.5897 71.9866C29.7733 71.9933 29.9536 71.9933 30.1372 71.9933C30.2173 71.9933 30.2974 72 30.3808 72C30.5144 72 30.6479 71.9866 30.7814 71.9866C31.1686 71.9866 31.5559 71.98 31.9398 71.9599C32.0633 71.9533 32.1868 71.9399 32.3137 71.9299C32.5006 71.9199 32.6875 71.9032 32.8745 71.8865C33.0781 71.8698 33.2817 71.8565 33.4853 71.8398L34.2464 71.753C34.3132 71.7463 34.3766 71.7296 34.4434 71.7196C34.9374 71.6528 35.4248 71.566 35.9122 71.4759C36.1492 71.4325 36.3862 71.3958 36.6232 71.3491C37.0605 71.2589 37.4878 71.1454 37.9184 71.0353C38.1788 70.9685 38.4425 70.9184 38.6995 70.845L38.9265 70.7782L38.9633 70.7682L39.4139 70.6347C39.8879 70.4845 40.352 70.3309 40.8159 70.1607C40.866 70.144 40.9127 70.1239 40.9628 70.1039C41.0129 70.0839 41.0496 70.0705 41.093 70.0538C41.4602 69.9136 41.8274 69.7701 42.1745 69.6266C42.4282 69.5298 42.6719 69.4229 42.8655 69.3228L42.9456 69.2861L43.0591 69.2327C43.2227 69.1592 43.3829 69.0825 43.5465 69.0057C43.9037 68.8321 44.2575 68.6418 44.6114 68.4549C44.7415 68.3848 44.8717 68.3247 45.0019 68.2546C45.6128 67.9174 46.2237 67.5636 46.8112 67.1831L46.8045 67.1764C54.0183 62.5363 58.9351 55.0655 60.3477 46.607C60.4245 46.133 60.1007 45.6823 59.6266 45.6055C59.1526 45.5254 58.702 45.8492 58.6252 46.3232C57.33 54.071 52.9103 60.9474 46.404 65.3407C44.1942 63.4446 39.7277 60.1832 36.2996 61.3884C36.0793 61.4651 35.859 61.5486 35.6287 61.6354C33.766 62.3397 31.6563 63.1409 27.3734 61.612C24.6528 60.644 20.7638 62.2129 15.8137 66.262V66.2687C10.1021 62.8771 5.73578 57.6162 3.4558 51.3771C4.98804 49.4844 6.4167 48.3093 7.59515 47.9922C9.28095 47.5349 11.2171 49.491 13.0898 51.3771C14.9992 53.3032 16.9687 55.2927 19.1852 55.2927H19.282V55.296C20.5505 55.2059 21.7256 54.5816 22.5066 53.5769C26.6793 48.8968 29.4266 37.3401 27.0999 34.2594C26.3989 33.3281 25.1037 33.0877 24.1156 33.7053C19.776 35.7983 19.0684 35.8417 12.185 30.1635V30.1669C10.2522 28.6447 7.91217 27.7333 5.46196 27.5398C7.71853 23.5473 10.8998 20.1525 14.7383 17.6422C17.3587 19.3746 20.4231 20.316 23.5642 20.3461C26.6387 20.2793 29.6564 19.5016 32.3765 18.0695C37.6074 18.0494 41.2597 17.4018 43.8798 16.3637H43.8765C52.292 20.8401 57.917 29.2223 58.8716 38.7063C58.915 39.1503 59.2888 39.4908 59.7361 39.4908L59.7356 39.4898ZM26.7878 63.2604C31.6714 65.0029 34.3153 64.0014 36.2444 63.2704C36.4614 63.1869 36.6717 63.1068 36.8786 63.0367C38.9517 62.309 42.2064 64.1383 44.8535 66.3215C44.8 66.3515 44.75 66.3849 44.6966 66.415C44.3294 66.6286 43.9588 66.8256 43.5849 67.0258C43.3913 67.126 43.2011 67.2295 43.0041 67.3263C42.5034 67.5733 41.996 67.8103 41.482 68.0273C41.4552 68.0373 41.4319 68.0473 41.4052 68.0573C40.8911 68.271 40.3737 68.4679 39.8496 68.6515L39.4824 68.775C39.0017 68.9353 38.5244 69.0855 38.0337 69.2223C37.4595 69.3792 36.8753 69.5228 36.2845 69.6463C36.2344 69.6563 36.1876 69.673 36.1376 69.683C35.4566 69.8232 34.7722 69.9334 34.088 70.0235C33.6073 70.0869 33.1299 70.1303 32.6392 70.167C32.459 70.1804 32.2787 70.1971 32.0951 70.2071C31.6845 70.2305 31.2739 70.2405 30.8634 70.2472C30.7031 70.2472 30.5395 70.2572 30.376 70.2572H30.1023C29.665 70.2572 29.231 70.2438 28.7937 70.2204C28.6569 70.2138 28.5234 70.2004 28.3898 70.1904C27.9525 70.1604 27.5186 70.127 27.0813 70.0769L26.9778 70.0636C26.4871 70.0035 25.9998 69.93 25.5158 69.8466C25.459 69.8366 25.4056 69.8299 25.3489 69.8199H25.3455C23.1657 69.4293 21.0359 68.7884 19.003 67.9104L18.9296 67.877C18.4322 67.6601 17.9381 67.4264 17.4507 67.1794C21.5333 63.9481 24.8214 62.5594 26.7878 63.2604ZM24.8683 35.2768C25.4625 34.9897 25.5994 35.1733 25.6995 35.3101C27.2451 37.3597 25.2455 47.8748 21.1997 52.4185V52.4152C20.7324 53.0528 20.0147 53.4634 19.2269 53.5502C17.7447 53.6036 15.9956 51.841 14.3198 50.1486C12.3803 48.189 10.3807 46.1729 8.12752 46.1729C7.7937 46.1729 7.45989 46.2196 7.13605 46.3064C5.43025 46.9072 3.93476 47.9821 2.82314 49.4075C2.80311 49.3341 2.77974 49.264 2.75971 49.1905C2.61283 48.6598 2.47931 48.1257 2.36581 47.5882C2.33577 47.448 2.3124 47.3045 2.2857 47.1609C2.19891 46.7003 2.11212 46.2396 2.04535 45.7723C2.02866 45.6521 2.00863 45.5319 1.99194 45.4118C1.91516 44.8443 1.85841 44.2701 1.81836 43.696C1.81168 43.6025 1.80834 43.5057 1.80167 43.4122C1.76829 42.8547 1.74826 42.2973 1.74492 41.7365V41.6096C1.74492 41.0388 1.76161 40.4714 1.79499 39.9172C1.81502 39.5867 1.8484 39.2596 1.87845 38.9325C1.89847 38.6754 1.92518 38.4217 1.95522 38.168C1.99194 37.8509 2.04201 37.5338 2.08875 37.22C2.11879 37.003 2.15551 36.7927 2.19223 36.579L2.20558 36.5089C2.25565 36.2285 2.3124 35.9515 2.37249 35.6711C2.37249 35.661 2.37916 35.6544 2.37916 35.6444C2.4259 35.394 2.48264 35.1503 2.54607 34.8933C2.55942 34.8298 2.57611 34.7698 2.5928 34.7097C2.77974 33.9419 2.99004 33.2142 3.22705 32.5299C3.23373 32.5065 3.2404 32.4831 3.25042 32.4598C3.30717 32.2862 3.3706 32.1059 3.4407 31.919C3.57088 31.5584 3.70775 31.1979 3.85463 30.8408C3.92139 30.6772 3.99483 30.5136 4.0616 30.3501C4.19178 30.0496 4.32198 29.7525 4.46552 29.4521C4.50557 29.3686 4.54563 29.2852 4.58569 29.2017L4.57901 29.2051C6.9324 29.2651 9.20905 30.0696 11.0751 31.5084C18.1553 37.3501 19.7045 37.7707 24.872 35.2738L24.8683 35.2768ZM50.9428 2.8135C45.5083 6.57556 40.8615 9.99382 36.8528 13.1785C38.2481 7.17324 43.9763 4.55596 50.9463 2.8135H50.9428ZM19.6145 9.3529C26.2207 9.0825 31.9826 8.86553 35.0368 13.7726C23.407 14.1465 16.0398 12.0301 10.6988 9.23274C13.6631 9.51314 16.6473 9.55321 19.6153 9.34958L19.6145 9.3529ZM9.2631 10.4444C14.4539 13.2918 21.4911 15.5618 32.4065 15.5618C32.7269 15.5618 33.0607 15.5518 33.3845 15.5485C32.8671 15.8523 32.3564 16.1293 31.8556 16.3864L31.8589 16.383C31.7888 16.4064 31.7187 16.4398 31.6586 16.4832C22.5319 21.043 15.8894 17.8417 9.2631 10.4444ZM36.9861 15.3014C36.9928 15.2948 36.9994 15.2881 37.0061 15.2814C37.0128 15.2747 37.0228 15.2747 37.0295 15.2681C40.9718 12.0935 45.5685 8.68192 50.9598 4.92611C50.5058 5.78067 50.1286 6.6519 49.7546 7.51313C47.962 11.6357 46.2562 15.548 35.6073 16.2254C36.0579 15.9317 36.5187 15.6286 36.9861 15.3014Z" fill="black"/>
<path d="M47.2077 32.3127C44.6607 32.1458 42.3808 33.8782 41.8633 36.3785C41.4361 38.3146 40.1943 39.9704 38.4517 40.9217C36.8328 41.9031 36.0215 43.8126 36.4488 45.6586C37.2333 49.5409 40.5414 52.4083 44.4971 52.632C44.6407 52.642 44.7842 52.6454 44.9277 52.6454H44.9244C46.7704 52.642 48.5296 51.8509 49.7513 50.4656C52.6588 47.3343 53.3966 41.8327 52.8391 37.7641C52.2917 33.8318 49.4609 32.3727 47.2077 32.3127ZM48.4729 49.2741H48.4696C47.5048 50.3924 46.0728 50.9899 44.6007 50.8897C41.4161 50.6961 38.7623 48.3828 38.138 45.2549C37.8843 44.1466 38.3717 43.005 39.3465 42.4208C41.5196 41.2157 43.0619 39.1294 43.5726 36.6992C43.9364 35.0869 45.4085 33.972 47.0609 34.0521H47.161C48.8134 34.0955 50.7162 35.1503 51.1067 37.9944C51.6976 42.324 50.6127 46.964 48.4663 49.2738L48.4729 49.2741Z" fill="black"/>
</svg>
