<svg width="70" height="73" viewBox="0 0 70 73" fill="none" xmlns="http://www.w3.org/2000/svg">
<path d="M62.5891 30.6154C62.47 30.3874 62.2386 30.2445 61.98 30.2411H59.7476V27.1546V27.158C59.7442 24.7316 57.7807 22.7682 55.3578 22.7648H50.8217L50.8183 21.8119C50.8149 19.389 48.8514 17.4254 46.4284 17.4186H42.6716C42.2938 17.4186 41.991 17.7249 41.991 18.0992C41.991 18.477 42.2938 18.7798 42.6716 18.7798H46.4012C48.072 18.7866 49.4264 20.141 49.4298 21.8119V29.8599C49.4332 29.9994 49.4809 30.1321 49.5659 30.241H47.6977C47.3234 30.2478 47.0206 30.5473 47.0172 30.9216V43.6248H40.0309V37.0129C40.0275 35.3727 39.3129 33.8141 38.0708 32.7456C37.625 32.3679 37.1214 32.0582 36.5804 31.8404C36.6961 31.7179 36.7607 31.5614 36.7641 31.3946V12.0558H39.7485C40.1229 12.0558 40.4291 11.753 40.4291 11.3752C40.4291 11.0009 40.1229 10.6947 39.7485 10.6947H24.5678C24.19 10.6947 23.8872 11.0009 23.8872 11.3752C23.8872 11.753 24.19 12.0558 24.5678 12.0558H27.5896V32.3372L17.452 33.8447V12.0659H20.4364C20.8141 12.0659 21.117 11.7596 21.117 11.3853C21.117 11.0109 20.8141 10.7047 20.4364 10.7047H5.25564C4.88131 10.7047 4.57505 11.0109 4.57505 11.3853C4.57505 11.7596 4.88131 12.0659 5.25564 12.0659H8.24005V35.4782C6.26296 36.4004 4.9902 38.3775 4.97321 40.5587V43.652L3.41463 43.6554C1.53276 43.6554 0.0117188 45.1766 0.0117188 47.0584V71.9952C0.0117188 72.3695 0.314585 72.6758 0.692309 72.6758H69.0031C69.3808 72.6758 69.6837 72.3695 69.6837 71.9952V44.6426C69.6837 44.5337 69.6599 44.4249 69.6122 44.3262L62.5891 30.6154ZM50.791 29.8634V24.126H55.3305C57.0014 24.1294 58.3558 25.4838 58.3592 27.1581V30.2446L50.6549 30.2412C50.7433 30.1323 50.791 29.9996 50.791 29.8601L50.791 29.8634ZM47.0172 71.3147H24.8672V62.855C24.8672 62.4807 24.5609 62.1744 24.1866 62.1744H1.37276V54.3885H47.017L47.0172 71.3147ZM28.9137 12.0561H35.4031V31.3853C35.3963 31.4159 35.3963 31.4465 35.4031 31.4772C34.8008 31.3819 34.1883 31.3819 33.586 31.4772L28.9137 32.1407V12.0561ZM9.60191 12.0561H16.0913V33.835C16.0811 33.8996 16.0811 33.9643 16.0913 34.0255L9.73799 34.9341H9.56444L9.60191 12.0561ZM6.33508 40.5594C6.32827 38.4462 7.87319 36.6494 9.96606 36.3397L33.7591 32.7905V32.7939C34.991 32.6033 36.2399 32.964 37.179 33.7807C38.1182 34.594 38.6593 35.7715 38.6593 37.0135V43.656H6.33508V40.5594ZM1.37019 47.0556L1.37359 47.059C1.37359 45.9292 2.2856 45.0172 3.41541 45.0172H47.0176V53.0108H1.37342L1.37019 47.0556ZM1.37019 71.3121L1.37359 63.5363H23.5166V71.3121H1.37019ZM68.3229 71.3121H48.3577L48.3611 31.6031H61.5644L68.3226 44.8438L68.3229 71.3121ZM21.1341 1.35741H21.1375C21.1375 1.73513 20.8312 2.038 20.4569 2.038H12.6506C12.0448 2.03119 11.4595 2.266 11.0273 2.69477C10.5952 3.12014 10.3502 3.702 10.3468 4.30781V7.53039C10.3468 7.90471 10.0405 8.21098 9.66617 8.21098C9.29184 8.21098 8.98558 7.90471 8.98558 7.53039V4.30781C8.98558 2.30345 10.6122 0.676829 12.6166 0.676829H20.4025C20.5897 0.66662 20.7734 0.731275 20.9095 0.86059C21.0457 0.989904 21.1205 1.17026 21.1171 1.35742L21.1341 1.35741ZM21.1341 4.90667H21.1375C21.1375 5.281 20.8312 5.58726 20.4569 5.58726H15.247V7.53038C15.247 7.9047 14.9407 8.21097 14.5664 8.21097C14.192 8.21097 13.8858 7.9047 13.8858 7.53038V4.91691C13.8858 4.53918 14.192 4.23632 14.5664 4.23632H20.4365C20.6202 4.23291 20.7938 4.30438 20.9231 4.43029C21.049 4.5596 21.1205 4.73316 21.1171 4.91691L21.1341 4.90667ZM40.9189 1.35741C40.9189 1.73513 40.6127 2.038 40.2383 2.038H32.4524C31.1967 2.038 30.1792 3.05211 30.1758 4.3078V7.53038C30.1758 7.9047 29.8695 8.21097 29.4952 8.21097C29.1175 8.21097 28.8146 7.9047 28.8146 7.53038V4.3078C28.8146 2.30344 30.4378 0.67682 32.4422 0.67682H40.2281C40.4119 0.673417 40.5888 0.741476 40.7182 0.870791C40.8509 1.00011 40.9223 1.17705 40.9189 1.35741ZM40.9189 4.90667C40.9189 5.281 40.6127 5.58726 40.2383 5.58726H35.0489V7.53038C35.0489 7.9047 34.7426 8.21097 34.3683 8.21097C33.9905 8.21097 33.6877 7.9047 33.6877 7.53038V4.91691C33.6877 4.53918 33.9905 4.23632 34.3683 4.23632H40.2384C40.4187 4.23291 40.5957 4.30438 40.7216 4.43029C40.8509 4.5596 40.9224 4.73316 40.919 4.91691L40.9189 4.90667ZM57.4709 46.5488C57.4675 46.9231 57.1612 47.2226 56.7903 47.2226H53.3159V50.7072C53.3159 51.0815 53.0096 51.3878 52.6353 51.3878C52.2575 51.3878 51.9547 51.0815 51.9547 50.7072V46.5488C51.9513 46.3685 52.0227 46.1915 52.1486 46.0622C52.278 45.9329 52.4515 45.8614 52.6353 45.8614H56.7902C57.168 45.8648 57.4709 46.1711 57.4709 46.5488ZM61.1631 45.8614H65.3215C65.5018 45.8614 65.6754 45.9329 65.8047 46.0622C65.934 46.1915 66.0021 46.3684 66.0021 46.5488C66.0021 46.7291 65.9306 46.9027 65.8013 47.0286C65.672 47.1545 65.4984 47.2226 65.3215 47.2226H61.8811V50.7072C61.8811 51.0815 61.5748 51.3878 61.2005 51.3878C60.8262 51.3878 60.5199 51.0815 60.5199 50.7072V46.5488C60.5199 46.1847 60.8024 45.8852 61.1631 45.8614ZM57.4335 55.2089V55.2055C57.4335 55.5832 57.1306 55.8861 56.7529 55.8861H53.3159V59.3639C53.3159 59.7382 53.0097 60.0445 52.6353 60.0445C52.2576 60.0445 51.9548 59.7382 51.9548 59.3639V55.2055C51.9548 54.8312 52.2576 54.5249 52.6353 54.5249H56.7903C57.1647 54.5318 57.4675 54.8312 57.4709 55.2055L57.4335 55.2089ZM65.9987 55.2089L66.0021 55.2055C66.0021 55.3893 65.9341 55.5628 65.8047 55.6921C65.6754 55.818 65.5019 55.8895 65.3215 55.8861H61.8811V59.3639C61.8811 59.7382 61.5749 60.0445 61.2006 60.0445C60.8262 60.0445 60.52 59.7382 60.52 59.3639V55.2055C60.5234 54.8312 60.8262 54.5317 61.2006 54.5249H65.3555C65.7333 54.5249 66.0361 54.8312 66.0361 55.2055L65.9987 55.2089ZM57.4709 63.9001C57.4675 64.2744 57.1646 64.5773 56.7903 64.5807H53.3159V68.0551C53.3159 68.4328 53.0096 68.7357 52.6353 68.7357C52.2575 68.7357 51.9547 68.4328 51.9547 68.0551V63.9001C51.9513 63.7198 52.0227 63.5428 52.1486 63.4169C52.278 63.2876 52.4515 63.2161 52.6353 63.2195H56.7902C56.9706 63.2195 57.1441 63.291 57.2701 63.4203C57.3994 63.5462 57.4709 63.7197 57.4709 63.9001ZM66.0361 63.9001C66.0361 64.2744 65.7332 64.5807 65.3555 64.5807H61.8811V68.0551C61.8811 68.4328 61.5748 68.7357 61.2005 68.7357C60.8261 68.7357 60.5199 68.4328 60.5199 68.0551V63.9001C60.5199 63.5258 60.8261 63.2195 61.2005 63.2195H65.3554C65.5392 63.2161 65.7128 63.2876 65.8421 63.4169C65.968 63.5428 66.0395 63.7197 66.0361 63.9001Z" fill="black"/>
</svg>
