<svg width="64" height="57" viewBox="0 0 64 57" fill="none" xmlns="http://www.w3.org/2000/svg">
<path fill-rule="evenodd" clip-rule="evenodd" d="M31.999 6.39788e-05C18.8625 6.39788e-05 7.48948 9.1917 4.69517 22.0638C4.63953 22.3231 4.68913 22.5938 4.83307 22.8165C4.97701 23.0392 5.20349 23.1956 5.46272 23.2513C5.59123 23.2791 5.72396 23.2814 5.85332 23.2578C5.98269 23.2343 6.10614 23.1855 6.21662 23.1142C6.3271 23.0429 6.42243 22.9505 6.49716 22.8424C6.57189 22.7342 6.62456 22.6123 6.65214 22.4838C9.24993 10.5169 19.7944 2 31.999 2C43.1251 2.00001 52.9971 9.10646 56.5666 19.6596C54.8888 20.5088 53.7308 22.2529 53.7308 24.2552C53.7308 27.0851 56.0432 29.4093 58.8693 29.4093C61.6954 29.4093 64 27.0851 64 24.2552C64 21.4252 61.6954 19.1108 58.8693 19.1108C58.7428 19.1108 58.6167 19.1153 58.4924 19.1244C54.6817 7.71179 44.0145 6.77583e-05 31.999 6.39788e-05ZM31.999 10.4236C27.4032 10.4236 23.2191 12.2035 20.0892 15.1109C20.057 15.1357 20.0264 15.1625 19.9974 15.191C19.9928 15.1975 19.9882 15.2041 19.9838 15.2107C16.5813 18.4237 14.4546 22.9806 14.4546 28.0286C14.4546 33.0817 16.5852 37.6408 19.9935 40.8525C19.9948 40.8545 19.9961 40.8565 19.9974 40.8585C20.0038 40.8644 20.0104 40.8702 20.017 40.8759C23.1544 43.8212 27.368 45.6258 31.999 45.6258C36.6021 45.6258 40.7952 43.8424 43.9283 40.9286C43.9569 40.9067 43.9843 40.8832 44.0103 40.8583C44.0196 40.8481 44.0287 40.8376 44.0376 40.827C47.4318 37.6167 49.553 33.068 49.553 28.0285C49.553 22.9999 47.4405 18.4587 44.0591 15.2477C44.0435 15.2282 44.0272 15.2093 44.0102 15.191C43.9694 15.1488 43.925 15.1102 43.8774 15.0758C40.75 12.1885 36.5769 10.4236 31.999 10.4236ZM31.1514 12.5544V19.3022C29.5863 19.2162 28.0541 18.8912 26.6027 18.3511C26.8126 17.7721 27.0399 17.2265 27.2824 16.7203C28.4029 14.3807 29.7837 12.9705 31.1514 12.5544ZM33.1513 12.6618C34.4207 13.1825 35.6854 14.5528 36.7235 16.7202C36.9656 17.2258 37.1919 17.7711 37.4012 18.3491C36.0424 18.8552 34.6126 19.1735 33.1513 19.2827V12.6618ZM27.0832 13.2184C26.4832 13.9835 25.9436 14.8742 25.4738 15.855C25.2208 16.3834 24.9863 16.9433 24.7688 17.5288C23.8802 17.0598 23.0329 16.5073 22.2435 15.8687C23.6703 14.7154 25.3054 13.811 27.0832 13.2184ZM36.9168 13.2184C38.6946 13.811 40.3297 14.7154 41.7565 15.8687C40.9673 16.507 40.1214 17.0618 39.2332 17.5308C39.0154 16.9444 38.7796 16.3841 38.5262 15.855C38.0564 14.8742 37.5168 13.9835 36.9168 13.2184ZM20.7552 17.2398C21.8009 18.1149 22.94 18.8581 24.1438 19.4624C23.5152 21.7268 23.135 24.2916 23.0598 27.0246H16.478C16.7169 23.2337 18.3001 19.815 20.7552 17.2398ZM43.2448 17.2398C45.6999 19.815 47.2811 23.2337 47.52 27.0246H40.9402C40.865 24.2916 40.4848 21.7268 39.8562 19.4624C41.06 18.8581 42.1991 18.1149 43.2448 17.2398ZM37.9969 20.2651C38.528 22.2766 38.8654 24.5747 38.9383 27.0246H33.1513V21.2865C34.8162 21.1768 36.447 20.83 37.9969 20.2651ZM26.007 20.267C27.6494 20.8652 29.3832 21.2183 31.1514 21.3041V27.0246H25.0617C25.1351 24.5754 25.4743 22.2781 26.007 20.267ZM58.8693 21.1107C60.6112 21.1107 61.9981 22.5027 61.9981 24.2552C61.9981 26.0077 60.6112 27.4074 58.8693 27.4074C57.1274 27.4074 55.7327 26.0077 55.7327 24.2552C55.7327 22.5027 57.1274 21.1107 58.8693 21.1107ZM5.13851 26.6477C2.31239 26.6477 0 28.9621 0 31.7921C0 34.622 2.31239 36.9442 5.13851 36.9442C5.26295 36.9442 5.38538 36.9414 5.50764 36.9325C9.32127 48.3432 19.9879 56.0569 31.999 56.0569C45.1356 56.0569 56.5105 46.8653 59.3048 33.9932C59.3338 33.8641 59.3369 33.7306 59.3139 33.6003C59.291 33.4701 59.2424 33.3457 59.171 33.2343C59.0996 33.123 59.0068 33.0269 58.8981 32.9516C58.7893 32.8764 58.6667 32.8235 58.5373 32.7959C58.4088 32.7681 58.276 32.7659 58.1467 32.7894C58.0173 32.8129 57.8939 32.8617 57.7834 32.933C57.6729 33.0043 57.5776 33.0967 57.5028 33.2049C57.4281 33.3131 57.3754 33.4349 57.3479 33.5635C54.7501 45.5303 44.2036 54.0551 31.999 54.0551C20.8755 54.0551 11.0045 46.949 7.43336 36.3954C9.11185 35.5451 10.2692 33.7964 10.2692 31.7921C10.2692 28.9621 7.96465 26.6477 5.13851 26.6477ZM5.13851 28.6476C6.88039 28.6476 8.26733 30.0396 8.26733 31.7921C8.26733 33.5446 6.88039 34.9443 5.13851 34.9443C3.39664 34.9443 1.99994 33.5446 1.99994 31.7921C1.99994 30.0396 3.39664 28.6476 5.13851 28.6476ZM16.478 29.0246H23.0598C23.1345 31.7596 23.515 34.3267 24.1438 36.5927C22.9407 37.1966 21.8024 37.9408 20.7572 38.8153C18.2995 36.2399 16.7155 32.819 16.478 29.0246ZM25.0617 29.0246H31.1514V34.7529C29.3832 34.8387 27.6494 35.1899 26.007 35.788C25.474 33.7753 25.1346 31.4759 25.0617 29.0246ZM33.1513 29.0246H38.9383C38.8659 31.4774 38.5286 33.7783 37.9969 35.792C36.4469 35.227 34.8161 34.8782 33.1513 34.7685V29.0246ZM40.9402 29.0246H47.522C47.2845 32.819 45.7005 36.2399 43.2428 38.8153C42.1978 37.9411 41.0593 37.1985 39.8562 36.5947C40.4854 34.3282 40.8655 31.7603 40.9402 29.0246ZM31.1514 36.7548V43.4949C29.7837 43.0805 28.4029 41.6763 27.2824 39.3368C27.0391 38.8289 26.8112 38.2811 26.6007 37.7001C28.0527 37.1611 29.5856 36.8405 31.1514 36.7548ZM33.1513 36.7745C34.6131 36.8832 36.0438 37.199 37.4032 37.7041C37.1935 38.2836 36.9662 38.8302 36.7235 39.3369C35.6854 41.5043 34.4207 42.8689 33.1513 43.3876V36.7745ZM24.7649 38.5223C24.9831 39.1102 25.2199 39.6698 25.4738 40.2C25.9423 41.1781 26.4794 42.0681 27.0773 42.8308C25.3017 42.2388 23.6688 41.3337 22.2435 40.1824C23.0321 39.5448 23.8773 38.9903 24.7649 38.5223ZM39.2332 38.5223C40.1216 38.9905 40.9672 39.5444 41.7565 40.1824C40.3312 41.3337 38.6983 42.2388 36.9227 42.8308C37.5207 42.0681 38.0577 41.1781 38.5262 40.2C38.7801 39.6699 39.015 39.1099 39.2332 38.5223Z" fill="black"/>
</svg>
