<svg width="64" height="64" viewBox="0 0 64 64" fill="none" xmlns="http://www.w3.org/2000/svg">
<path fill-rule="evenodd" clip-rule="evenodd" d="M9.39075 9.39038L10.6148 8.22543L12.0761 9.8492L10.9375 10.9286L9.39075 9.39038ZM31.9969 24.3263C35.6068 19.4947 41.654 17.0465 48.0161 15.8303C48.5978 15.7191 49.1601 16.0752 49.3141 16.6375C52.2529 25.3754 52.3213 32.4063 49.4805 37.7093C46.6241 43.0418 40.8981 46.5312 32.2652 48.1534C32.035 48.1977 31.972 48.2008 31.7278 48.1534C23.0949 46.5312 17.3681 43.0418 14.5117 37.7093C11.6654 32.3954 11.7401 25.3443 14.6976 16.5799C14.8998 15.9757 15.4698 15.7323 16.0608 15.8458C23.5273 17.2868 28.8473 20.109 31.9969 24.3263ZM29.8474 45.4471L22.888 32.5323C22.5933 31.9841 22.7986 31.3013 23.3468 31.0065C23.8943 30.7118 24.5779 30.9171 24.8726 31.4653L31.7216 44.1756C33.7171 37.1828 33.5577 31.5797 31.2659 27.3507C28.8248 22.8488 23.9005 19.8182 16.5228 18.2411C12.0302 32.3923 15.4177 41.9071 29.8474 45.4471ZM35.1309 38.8664L39.1188 31.4653C39.4135 30.9171 40.0963 30.7118 40.6446 31.0065C41.1928 31.3013 41.3974 31.9841 41.1034 32.5323L34.144 45.4471C48.5722 41.9064 51.9628 32.3923 47.4694 18.2411C41.7769 19.4573 36.299 21.8012 33.3018 26.3833C35.1324 29.8175 35.7453 33.9772 35.1309 38.8664ZM3.35291 17.8063L4.1438 16.314L6.04054 17.3825L5.30953 18.7714L3.35291 17.8063ZM1.98499 20.994L2.60713 19.4239L4.61507 20.2786L4.03571 21.7367L1.98499 20.994ZM0.970129 24.3053L1.4204 22.6792C2.11486 22.8907 2.8101 23.1015 3.50456 23.3122L3.08851 24.8271L0.969352 24.3061L0.970129 24.3053ZM0.319996 27.7092L0.589848 26.0458L2.73466 26.447L2.48192 27.9993L0.319996 27.7092ZM36.4102 63.6967L34.7304 63.8849L34.5507 61.7066L36.1108 61.5356L36.4102 63.6967ZM39.8132 63.0388L38.1623 63.4059L37.7524 61.2618L39.2829 60.9204L39.8125 63.0396L39.8132 63.0388ZM43.1285 62.0169L41.5249 62.5582L40.8841 60.4733L42.3671 59.9662L43.1285 62.0169ZM52.1347 56.9038L50.7932 57.9272L49.5201 56.1587L50.7683 55.203L52.1347 56.9038ZM60.7411 46.1563L59.9565 47.6534L58.0512 46.5848L58.7853 45.1982L60.7419 46.1556L60.7411 46.1563ZM62.1052 42.971L61.4846 44.5419L59.4767 43.6872L60.0545 42.2275L62.1052 42.971ZM63.1162 39.6542L62.6674 41.285L60.5833 40.6528L60.997 39.1417L63.1162 39.6542ZM63.7624 36.2496L63.4949 37.9177L61.3501 37.5156L61.6005 35.9673L63.7624 36.2496ZM32.0241 0V2.18759C48.1452 2.18759 61.3019 14.9655 61.8346 30.9925L60.6393 29.3555C60.2854 28.8687 59.6042 28.7622 59.1189 29.1152C58.6321 29.4698 58.5256 30.1511 58.8786 30.6371L62.008 34.9229C62.4489 35.5279 63.3565 35.5077 63.7787 34.9089L66.7914 30.6332C67.1391 30.1402 67.0201 29.459 66.527 29.1129C66.034 28.7661 65.3527 28.8843 65.0059 29.3773L64.0159 30.7833C63.3759 13.6419 49.2783 0.000777244 32.0249 0.000777244L32.0241 0ZM32.0381 64V61.8124C15.9022 61.8124 2.72456 48.9793 2.24084 32.9149L3.3358 34.4711C3.68265 34.9633 4.36389 35.0823 4.85615 34.7355C5.3492 34.3894 5.46818 33.7074 5.12134 33.2151L2.1102 28.9379L2.10864 28.9395C1.68636 28.3399 0.778822 28.3204 0.337883 28.9255L-2.79147 33.2112C-3.14531 33.6973 -3.03799 34.3785 -2.55194 34.7316C-2.06512 35.0854 -1.38466 34.9781 -1.03082 34.492L0.0548105 33.0044C0.58596 50.2383 14.7256 64 32.0381 64ZM27.7034 0.298626L29.387 0.111985L29.5581 2.29024L28.0028 2.46055L27.7034 0.298626ZM14.7839 5.0502L16.2304 4.17843L17.3067 6.07594L15.9629 6.88783L14.7839 5.05097V5.0502ZM11.9711 7.07292L13.339 8.77291L14.5879 7.81948L13.3149 6.05028L11.9718 7.07214L11.9711 7.07292ZM24.2995 0.951869L25.9505 0.586364L26.3611 2.73118L24.8299 3.07102L24.2995 0.951869ZM57.0254 51.9974L55.9313 53.2891L54.3075 51.8364L55.3169 50.6388L57.0254 51.9974ZM20.9882 1.96984L22.5871 1.43014L23.2279 3.51507L21.7394 4.02056L20.9882 1.96984ZM17.8013 3.34087L19.3348 2.62931L20.198 4.63725L18.7749 5.29749L17.8013 3.34087ZM7.07873 11.9699L8.77872 13.3371L9.79281 12.1363L8.16981 10.6836L7.07796 11.9707L7.07873 11.9699ZM59.0427 49.1799L58.0979 50.5782L56.3201 49.3137L57.1973 48.0095L59.0427 49.1799ZM54.7134 54.5816L53.1666 53.0442L52.0297 54.1251L53.4909 55.7481L54.7134 54.5816ZM5.05835 14.7882L6.00088 13.3868L7.77786 14.6599L6.89521 15.9578L5.05835 14.7882ZM49.3234 58.9296L47.8785 59.8029L46.8014 57.9054L48.1444 57.0919L49.3226 58.9288L49.3234 58.9296ZM46.3091 60.6373L44.7763 61.3512L43.9131 59.3519L45.3347 58.6893L46.3091 60.6373Z" fill="black"/>
</svg>
