<svg width="54" height="72" viewBox="0 0 54 72" fill="none" xmlns="http://www.w3.org/2000/svg">
<path d="M43.9345 25.5315C43.9345 15.974 36.1631 8.20294 26.6059 8.20294C17.0488 8.20294 9.27734 15.9744 9.27734 25.5315C9.27734 35.0887 17.0488 42.8601 26.6059 42.8601C36.1631 42.8601 43.9345 35.0887 43.9345 25.5315ZM26.6059 40.1949C18.5146 40.1949 11.9425 33.6233 11.9425 25.5315C11.9425 17.4398 18.5142 10.8681 26.6059 10.8681C34.6977 10.8681 41.2694 17.4398 41.2694 25.5315C41.2694 33.6233 34.6977 40.1949 26.6059 40.1949Z" fill="black"/>
<path d="M44.0423 43.4871C45.5619 43.0605 47.1482 42.5007 48.1346 41.1676C49.2411 39.648 49.1344 37.6618 49.0544 35.9156C49.0011 34.7559 48.9478 33.6629 49.201 32.8631C49.441 32.1166 50.1075 31.3035 50.8139 30.437C51.9337 29.0507 53.2133 27.4777 53.2133 25.5316C53.2133 23.5854 51.9337 22.0124 50.8139 20.6261C50.1075 19.7597 49.4409 18.9465 49.201 18.2C48.9344 17.4002 48.9878 16.3071 49.0544 15.1475C49.1477 13.4012 49.241 11.4151 48.1346 9.89548C47.0149 8.36251 45.0954 7.8427 43.3892 7.38944C42.2828 7.09618 41.2297 6.81625 40.5632 6.32304C39.91 5.84316 39.3235 4.95003 38.7103 3.99027C37.7506 2.49731 36.6575 0.817684 34.8313 0.217855C33.0717 -0.355339 31.3121 0.324495 29.6192 0.964336C28.5262 1.37757 27.4864 1.77746 26.6067 1.77746C25.7269 1.77746 24.6871 1.37756 23.5941 0.964336C21.8879 0.31117 20.1416 -0.355356 18.3821 0.217855C16.5559 0.817701 15.4628 2.49731 14.503 3.99027C13.8898 4.93672 13.3034 5.84316 12.6501 6.32304C11.9836 6.81625 10.9306 7.09618 9.82417 7.38944C8.11793 7.84266 6.19841 8.36251 5.07869 9.89548C3.97228 11.4151 4.07892 13.4013 4.15894 15.1475C4.21226 16.3072 4.26558 17.4002 4.01231 18.2C3.77237 18.9465 3.10587 19.7596 2.3994 20.6261C1.27968 22.0124 0 23.5854 0 25.5316C0 27.4777 1.27968 29.0507 2.3994 30.437C3.10589 31.3034 3.77241 32.1166 4.01231 32.8631C4.27891 33.6629 4.22559 34.756 4.15894 35.9156C4.06563 37.6619 3.97232 39.648 5.07869 41.1676C6.05176 42.5006 7.65136 43.0738 9.17102 43.5004L1.17302 65.7216C0.986402 66.2548 1.14636 66.8413 1.57292 67.2013C1.99948 67.5612 2.61271 67.6145 3.0925 67.3212L10.6239 62.8957L13.6232 71.1203C13.8098 71.6535 14.3163 72 14.8762 72C15.4361 72 15.9426 71.6401 16.1293 71.1203L23.7007 50.0584C24.7538 49.6585 25.7535 49.2853 26.5933 49.2853C27.4331 49.2853 28.4328 49.6585 29.4859 50.0584L37.0574 71.1203C37.244 71.6535 37.7505 72 38.3104 72C38.8703 72 39.3635 71.6534 39.5635 71.1203L42.5627 62.8957L50.0941 67.3212C50.574 67.6012 51.1872 67.5612 51.6137 67.2013C52.0403 66.8414 52.2136 66.2548 52.0136 65.7216L44.0156 43.5004L44.0423 43.4871ZM14.8758 66.7346L12.5831 60.4695C12.4498 60.0962 12.1565 59.803 11.7833 59.6697C11.41 59.5364 10.9968 59.5764 10.6636 59.7763L4.93161 63.1488L11.73 44.2598C12.0765 44.3931 12.3965 44.5531 12.6497 44.7397C13.3029 45.2196 13.8894 46.1127 14.5026 47.0725C15.4624 48.5655 16.5554 50.2451 18.3817 50.8449C18.8482 50.9915 19.3148 51.0582 19.7813 51.0582C20.0346 51.0582 20.2878 51.0315 20.5411 50.9915L14.8759 66.7478L14.8758 66.7346ZM22.6473 47.5923C22.474 47.659 22.314 47.7123 22.154 47.7789C22.1274 47.7789 22.1141 47.7923 22.0874 47.8056C20.981 48.2188 19.9546 48.5387 19.2081 48.2988C18.275 47.9922 17.5285 46.8458 16.7421 45.6195C16.0223 44.4998 15.2757 43.3534 14.2227 42.5802C13.1563 41.8071 11.81 41.4472 10.517 41.1006C9.11733 40.7273 7.79763 40.3674 7.23773 39.6076C6.69121 38.8478 6.75785 37.5014 6.8245 36.0619C6.89115 34.7156 6.9578 33.3293 6.54457 32.0496C6.14467 30.8232 5.29151 29.7701 4.46509 28.757C3.53195 27.6106 2.66552 26.5442 2.66552 25.5312C2.66552 24.5182 3.54526 23.4517 4.46509 22.3054C5.29155 21.2923 6.14471 20.2392 6.54457 19.0129C6.95781 17.7332 6.89115 16.3469 6.8245 15.0006C6.75785 13.5609 6.67786 12.2146 7.23773 11.4548C7.79759 10.6817 9.11724 10.3351 10.517 9.96187C11.8099 9.61529 13.1429 9.25539 14.2227 8.48222C15.2758 7.70908 16.0223 6.5627 16.7421 5.44298C17.5286 4.21662 18.2751 3.07028 19.2081 2.76367C20.0745 2.48374 21.3143 2.96362 22.6472 3.47015C23.9269 3.96336 25.2466 4.45653 26.6062 4.45653C27.9658 4.45653 29.2988 3.94999 30.5652 3.47015C31.8849 2.96361 33.1379 2.48378 34.0043 2.76367C34.9374 3.07026 35.6839 4.21662 36.4703 5.44298C37.1901 6.5627 37.9367 7.70904 38.9897 8.48222C40.0561 9.25536 41.4024 9.61525 42.6955 9.96187C44.0951 10.3351 45.4148 10.695 45.9747 11.4548C46.5212 12.2146 46.4546 13.561 46.3879 15.0006C46.3213 16.3469 46.2546 17.7332 46.6678 19.0129C47.0677 20.2392 47.9209 21.2923 48.7473 22.3054C49.6805 23.4518 50.5469 24.5182 50.5469 25.5312C50.5469 26.5442 49.6672 27.6107 48.7473 28.757C47.9209 29.7701 47.0677 30.8232 46.6678 32.0496C46.2546 33.3293 46.3213 34.7156 46.3879 36.0619C46.4546 37.5015 46.5345 38.8478 45.9747 39.6076C45.4148 40.3808 44.0952 40.7273 42.6955 41.1006C41.4025 41.4472 40.0561 41.8071 38.9897 42.5802C37.9366 43.3534 37.1901 44.4998 36.4703 45.6195C35.6838 46.8458 34.9373 47.9922 34.0043 48.2988C33.2578 48.5387 32.2314 48.2188 31.125 47.8056C31.1117 47.8056 31.085 47.8056 31.0717 47.7789C30.9117 47.7123 30.7384 47.659 30.5785 47.5923C29.2988 47.0991 27.9791 46.6059 26.6195 46.6059C25.2599 46.6059 23.9269 47.1125 22.6605 47.5923H22.6473ZM42.5488 59.7757C42.2023 59.5758 41.789 59.5358 41.4291 59.6691C41.0559 59.8024 40.7626 60.0956 40.6293 60.4689L38.3366 66.734L32.6713 50.9777C33.3912 51.0711 34.111 51.0577 34.8307 50.8178C36.6569 50.2179 37.75 48.5383 38.7098 47.0454C39.323 46.0989 39.9095 45.1925 40.5627 44.7126C40.816 44.526 41.1359 44.3793 41.4824 44.2327L48.2808 63.1216L42.5488 59.7492V59.7757Z" fill="black"/>
<path d="M33.5526 18.5476L24.8482 29.691L19.5428 24.3856C19.023 23.8658 18.1831 23.8658 17.6633 24.3856C17.1435 24.9055 17.1434 25.7453 17.6633 26.2651L24.0217 32.6235C24.275 32.8768 24.6082 33.0101 24.9682 33.0101H25.0481C25.4347 32.9834 25.7813 32.7968 26.0212 32.5036L35.6589 20.1734C36.1121 19.5869 36.0055 18.7605 35.4323 18.3072C34.8458 17.854 34.0194 17.9606 33.5661 18.5338L33.5526 18.5476Z" fill="black"/>
</svg>
