<svg width="64" height="65" viewBox="0 0 64 65" fill="none" xmlns="http://www.w3.org/2000/svg">
<path d="M17.677 37.9241H21.0054C21.3972 37.9241 21.7167 38.2436 21.7167 38.6353C21.7167 39.0271 21.3972 39.3466 21.0054 39.3466H17.677C17.2824 39.3466 16.9657 39.0271 16.9657 38.6353C16.9657 38.2436 17.2824 37.9241 17.677 37.9241ZM16.9657 41.786C16.9657 41.9749 17.0407 42.1555 17.1741 42.2889C17.3074 42.4222 17.488 42.4972 17.677 42.4972H21.0054C21.3972 42.4972 21.7167 42.1777 21.7167 41.786C21.7167 41.3942 21.3972 41.0747 21.0054 41.0747H17.677C17.2824 41.0747 16.9657 41.3942 16.9657 41.786ZM47.2772 25.5324C47.2577 25.5741 47.2438 25.6158 47.2355 25.6602C47.2327 25.7102 47.2327 25.7575 47.2355 25.8047C47.2327 25.8519 47.2327 25.8992 47.2355 25.9464C47.2438 25.9909 47.2577 26.0325 47.2772 26.0742C47.2938 26.1187 47.3161 26.1631 47.3411 26.202L47.4328 26.3076L47.5383 26.3937H47.5411C47.5772 26.4215 47.6189 26.4437 47.6634 26.4576C47.705 26.4798 47.7495 26.4937 47.7967 26.5021C47.8412 26.5076 47.8884 26.5076 47.9329 26.5021C47.9801 26.5076 48.0273 26.5076 48.0746 26.5021C48.1218 26.4937 48.1663 26.4798 48.2107 26.4576C48.2524 26.4437 48.2941 26.4215 48.3302 26.3937L48.4302 26.3159L48.5219 26.2103C48.5469 26.1687 48.5691 26.1242 48.5858 26.0825L48.6275 25.9547L48.6302 25.952C48.633 25.9047 48.633 25.8575 48.6302 25.8103C48.633 25.763 48.633 25.7158 48.6302 25.6686L48.5886 25.5408H48.5858C48.5691 25.4963 48.5469 25.4518 48.5219 25.4129C48.4969 25.3741 48.4635 25.3379 48.4302 25.3046C48.4024 25.2713 48.3663 25.2407 48.3246 25.2212C48.2857 25.1935 48.244 25.1685 48.2024 25.149L48.0662 25.1129C47.9773 25.0934 47.8801 25.0934 47.7912 25.1129L47.655 25.149C47.6134 25.1685 47.5717 25.1935 47.5328 25.2212C47.4939 25.2407 47.455 25.2713 47.4272 25.3046C47.3939 25.3379 47.3605 25.3741 47.3355 25.4129C47.3105 25.4491 47.2911 25.4908 47.2772 25.5324ZM50.9918 28.4497L50.9502 28.5775H50.9474C50.9446 28.6247 50.9446 28.672 50.9474 28.7192C50.9502 28.9109 51.0252 29.0915 51.1613 29.2249C51.1891 29.261 51.228 29.2888 51.2669 29.311C51.3058 29.3388 51.3447 29.361 51.3891 29.3749C51.4308 29.3943 51.478 29.4082 51.5253 29.4166C51.5725 29.4249 51.6197 29.4249 51.667 29.4166C51.8559 29.4193 52.0365 29.3443 52.1726 29.211C52.3004 29.0748 52.3755 28.8942 52.3782 28.7053C52.3782 28.5164 52.3032 28.3358 52.1726 28.1997C52.0365 28.0663 51.8559 27.9941 51.667 27.9941C51.478 27.9941 51.2947 28.0663 51.1613 28.1997L51.0696 28.3052V28.308C51.0363 28.3525 51.0113 28.3997 50.9918 28.4497ZM43.8295 28.1302C43.7851 28.1524 43.7489 28.1802 43.7156 28.2163C43.5822 28.3497 43.5072 28.5303 43.5072 28.7192C43.51 28.9081 43.585 29.0887 43.7156 29.2249C43.849 29.3582 44.0296 29.4332 44.2185 29.4305C44.2657 29.4388 44.3157 29.4388 44.363 29.4305C44.4519 29.411 44.5408 29.3749 44.6186 29.3249L44.7241 29.2387C44.8603 29.1054 44.9381 28.9248 44.9381 28.7331C44.9408 28.6859 44.9408 28.6386 44.9381 28.5914L44.8742 28.4497L44.8103 28.3219L44.7186 28.2163C44.5491 28.0496 44.3102 27.9774 44.0768 28.0218L43.9406 28.0579H43.9434C43.9018 28.0885 43.8629 28.1218 43.8295 28.158L43.8295 28.1302ZM48.2387 38.607C48.2387 38.7959 48.3137 38.9765 48.4471 39.1098C48.5805 39.2432 48.7611 39.3182 48.95 39.3182H52.2784C52.6702 39.3182 52.9897 38.9987 52.9897 38.607C52.9897 38.2124 52.6702 37.8957 52.2784 37.8957H48.9555C48.761 37.8929 48.5749 37.9707 48.4388 38.1096C48.3026 38.2513 48.2304 38.4403 48.2387 38.6347L48.2387 38.607ZM48.2387 41.7576C48.2387 41.9465 48.3137 42.1271 48.4471 42.2605C48.5805 42.3938 48.7611 42.4688 48.95 42.4688H52.2784C52.6702 42.4688 52.9897 42.1493 52.9897 41.7576C52.9897 41.3631 52.6702 41.0463 52.2784 41.0463H48.9555C48.761 41.0436 48.5749 41.1214 48.4388 41.2603C48.3026 41.402 48.2304 41.5909 48.2387 41.7854L48.2387 41.7576ZM6.27479 44.1608H8.48636V33.4921C8.48636 32.403 9.36988 31.5222 10.4562 31.5222H22.8974C23.4197 31.5222 23.9198 31.7306 24.2893 32.1001C24.6589 32.4696 24.8672 32.9698 24.8672 33.4921V44.1608H39.726V32.5752L34.5972 27.4408V27.4381C34.3166 27.1547 34.3222 26.699 34.6084 26.4184C34.8917 26.1406 35.3502 26.1434 35.628 26.4295L40.7624 31.5639H55.1375L60.2719 26.4295C60.5525 26.1517 61.0026 26.1545 61.2805 26.4323C61.5555 26.7129 61.5555 27.163 61.2749 27.4381L56.1489 32.5753V44.1886H57.8632C61.2 44.2303 63.9088 46.9003 63.9977 50.237C64.0867 53.5738 61.5278 56.3855 58.1966 56.6077V62.0421C58.1966 63.1201 57.3326 63.9953 56.2546 64.0119H7.88934C6.80027 64.0119 5.91952 63.1312 5.91952 62.0421V56.616C2.54939 56.4549 -0.0761255 53.6321 0.00168564 50.2592C0.0822564 46.8863 2.8356 44.1914 6.21128 44.1885L6.27479 44.1608ZM23.4807 33.4921C23.4752 33.192 23.2334 32.9475 22.9306 32.9447H10.4197C10.1196 32.9475 9.87788 33.192 9.87233 33.4921V44.1608H23.4445L23.4807 33.4921ZM54.7758 32.9447H41.1539V44.1889H54.7175L54.7758 32.9447ZM7.88862 62.5897H56.2538C56.5539 62.5897 56.7984 62.348 56.8012 62.048V56.6219H7.36907V62.0424C7.36907 62.3341 7.59689 62.5759 7.88862 62.5897ZM6.2383 55.1941H57.8625C60.5046 55.1941 62.6468 53.0493 62.6468 50.407C62.6468 47.762 60.5047 45.62 57.8625 45.62H6.2383C3.59614 45.62 1.45121 47.762 1.45121 50.407C1.45121 53.0492 3.59607 55.1941 6.2383 55.1941ZM59.3767 8.8183H52.8976C52.8893 10.0602 52.4142 11.2521 51.5668 12.1551L50.0582 20.6261C49.947 21.2679 49.3886 21.7374 48.7357 21.7347H47.1354C46.4824 21.7374 45.924 21.2679 45.8128 20.6261L44.3042 12.1551C43.4568 11.2521 42.9817 10.0602 42.9734 8.8183H21.6358C21.6136 10.652 20.5883 12.3246 18.963 13.172V19.6316L22.3276 22.2126C23.1722 22.8544 23.3528 24.0546 22.7333 24.9159L20.0522 28.7056C19.8244 29.0279 19.3771 29.1057 19.0548 28.8778C18.7325 28.65 18.6575 28.2027 18.8853 27.8804L21.5747 24.0908H21.5719C21.722 23.8574 21.672 23.5518 21.458 23.3796L17.9962 20.6985H15.3207L11.82 23.3435H11.8228C11.5866 23.5213 11.5366 23.8575 11.7088 24.0964L14.3899 27.8805C14.501 28.0361 14.5427 28.2278 14.5122 28.414C14.4788 28.6029 14.3732 28.7668 14.2177 28.8779C14.0982 28.9613 13.9537 29.0057 13.8065 29.0057C13.5759 29.0057 13.3564 28.8946 13.223 28.7057L10.5419 24.8938C9.92238 24.0241 10.1085 22.8184 10.9615 22.1766L14.3677 19.5955V13.1804C12.7424 12.3302 11.7144 10.6549 11.695 8.8184H4.76581C3.67952 8.81562 2.79877 7.93488 2.796 6.84859V1.96982C2.796 0.880745 3.67952 0 4.76581 0H59.3765C59.8989 0 60.399 0.208376 60.7685 0.577893C61.138 0.94741 61.3464 1.44754 61.3464 1.96982V6.84859C61.3436 7.93488 60.463 8.81553 59.3767 8.8183ZM47.2079 20.3427H48.6304L49.8751 13.3302V13.3274C48.6165 13.8775 47.1857 13.8775 45.9271 13.3274L47.2079 20.3427ZM47.9192 12.3134V12.3106C49.8585 12.3106 51.4393 10.7575 51.4754 8.81823H44.3629C44.3962 10.7631 45.9882 12.3189 47.933 12.3106L47.9192 12.3134ZM15.799 19.2675H17.5271V13.6636C17.2409 13.7137 16.9492 13.7414 16.6574 13.7414C16.3713 13.7414 16.0823 13.7136 15.799 13.6636V19.2675ZM13.1234 8.82634C13.3235 10.6295 14.846 11.9936 16.6575 11.9936C18.4718 11.9936 19.9943 10.6294 20.1944 8.82634H13.1234ZM59.9246 1.96943C59.9246 1.66659 59.6801 1.4221 59.3773 1.4221H4.76655C4.46649 1.4221 4.222 1.66381 4.21922 1.96388V6.84265C4.222 7.14271 4.4665 7.38164 4.76655 7.38164H59.3773C59.6773 7.38164 59.9218 7.1427 59.9246 6.84265V1.96943ZM37.2563 50.4072C37.2563 50.5961 37.3313 50.7767 37.4646 50.9101C37.598 51.0434 37.7786 51.1184 37.9675 51.1184H52.0923C52.4868 51.1184 52.8035 50.7989 52.8035 50.4072C52.8035 50.0127 52.4868 49.6959 52.0923 49.6959H37.9753C37.7836 49.6932 37.603 49.7682 37.4669 49.9015C37.3335 50.0349 37.2563 50.2155 37.2563 50.4072ZM11.5736 50.4072C11.5736 50.5961 11.6486 50.7767 11.782 50.9101C11.9154 51.0434 12.096 51.1184 12.2849 51.1184H26.3819C26.7737 51.1184 27.0932 50.7989 27.0932 50.4072C27.0932 50.0127 26.7737 49.6959 26.3819 49.6959H12.2849C11.8931 49.6959 11.5736 50.0127 11.5736 50.4072ZM57.8911 48.0373C58.8497 48.029 59.7193 48.6013 60.0944 49.4848C60.4667 50.3684 60.2694 51.3908 59.5943 52.0742C58.9191 52.7549 57.8995 52.9633 57.0104 52.5965C56.1241 52.2326 55.5435 51.3657 55.5435 50.4072C55.5463 49.107 56.5937 48.0539 57.8911 48.0373ZM57.8911 51.3463C58.2718 51.3518 58.619 51.1268 58.7691 50.7767C58.9191 50.4266 58.8413 50.0182 58.5746 49.7487C58.3051 49.4765 57.9023 49.3931 57.5494 49.5376C57.1966 49.682 56.966 50.0266 56.966 50.4072C56.966 50.9184 57.3771 51.3379 57.8911 51.3463ZM32.0719 48.0373C33.0305 48.0373 33.8945 48.6152 34.2612 49.4987C34.628 50.385 34.4252 51.4046 33.7472 52.0825C33.0693 52.7577 32.0497 52.9605 31.1662 52.5938C30.2799 52.227 29.7048 51.3657 29.7048 50.4072C29.7048 49.0987 30.7634 48.0373 32.0719 48.0373ZM32.0719 51.3463C32.4526 51.3463 32.7943 51.1157 32.9388 50.7656C33.0861 50.4155 33.0055 50.0099 32.736 49.7432C32.4665 49.4737 32.0636 49.3931 31.7136 49.5403C31.3607 49.6848 31.1329 50.0265 31.1329 50.4072C31.1329 50.924 31.5524 51.3463 32.0719 51.3463ZM6.46683 48.0373C7.42538 48.0373 8.28941 48.6152 8.65613 49.4987C9.02287 50.385 8.82006 51.4046 8.14214 52.0825C7.46423 52.7577 6.44459 52.9605 5.56107 52.5938C4.67478 52.227 4.09966 51.3657 4.09966 50.4072C4.09966 49.0987 5.15826 48.0373 6.46683 48.0373ZM6.46683 51.3463C6.84746 51.3463 7.18917 51.1157 7.3337 50.7656C7.48095 50.4155 7.40038 50.0099 7.13088 49.7432C6.86138 49.4737 6.45852 49.3931 6.10845 49.5403C5.75561 49.6848 5.52778 50.0265 5.52778 50.4072C5.53056 50.924 5.95006 51.3407 6.46683 51.3463Z" fill="black"/>
</svg>
