<svg width="64" height="50" viewBox="0 0 64 50" fill="none" xmlns="http://www.w3.org/2000/svg">
<path d="M34.0784 39.289H5.71395C4.805 39.288 3.93356 38.9265 3.29083 38.2837C2.6481 37.641 2.28657 36.7696 2.28558 35.8606V13.7777H55.0136V18.9018C55.0182 19.2018 55.1407 19.488 55.3545 19.6985C55.5683 19.909 55.8563 20.027 56.1564 20.027C56.4565 20.027 56.7445 19.909 56.9583 19.6984C57.1721 19.4879 57.2945 19.2017 57.2992 18.9017V5.71395C57.2974 4.19906 56.6948 2.74672 55.6236 1.67553C54.5524 0.604336 53.1 0.00176637 51.5851 0H5.71395C4.19907 0.0017815 2.74673 0.604357 1.67555 1.67555C0.604357 2.74673 0.0017815 4.19907 0 5.71395V35.8606C0.00177545 37.3755 0.604349 38.8279 1.67554 39.899C2.74673 40.9702 4.19906 41.5728 5.71395 41.5746H34.0784C34.3778 41.5691 34.6631 41.4462 34.8729 41.2325C35.0827 41.0188 35.2003 40.7313 35.2003 40.4318C35.2003 40.1323 35.0827 39.8448 34.8729 39.6311C34.6631 39.4173 34.3778 39.2945 34.0784 39.289ZM2.28558 5.71395C2.28657 4.805 2.6481 3.93356 3.29083 3.29083C3.93356 2.6481 4.805 2.28658 5.71395 2.28559H51.5851C52.4941 2.28658 53.3655 2.6481 54.0083 3.29083C54.651 3.93356 55.0125 4.805 55.0135 5.71395V7.41698H2.28558V5.71395ZM2.28558 9.70253H55.0136V11.4921H2.28558V9.70253Z" fill="black"/>
<path d="M8.27304 31.8655C7.97381 31.8713 7.68881 31.9943 7.47926 32.208C7.26971 32.4217 7.15233 32.709 7.15234 33.0083C7.15235 33.3076 7.26975 33.5949 7.47931 33.8086C7.68887 34.0223 7.97388 34.1452 8.27311 34.1511H16.4221C16.7213 34.1452 17.0063 34.0222 17.2159 33.8086C17.4254 33.5949 17.5428 33.3075 17.5428 33.0082C17.5428 32.7089 17.4254 32.4216 17.2158 32.2079C17.0063 31.9943 16.7213 31.8713 16.422 31.8655H8.27304Z" fill="black"/>
<path d="M63.526 26.2939C63.3885 25.6401 63.3201 24.7861 62.5629 24.5668L50.1295 20.5654C49.9015 20.4929 49.6566 20.4929 49.4286 20.5654L36.9963 24.5668C36.2409 24.7882 36.1723 25.6363 36.0321 26.2916C34.2019 35.4434 37.7708 43.6388 45.1231 47.1704L49.2847 49.1692C49.4389 49.2434 49.6079 49.282 49.7791 49.282C49.9502 49.282 50.1192 49.2434 50.2734 49.1692L54.4362 47.1704C61.7884 43.6394 65.3563 35.444 63.526 26.2939ZM53.4474 45.1103L49.779 46.8713L46.1118 45.1103C39.673 42.0374 36.5998 34.6489 38.3143 26.5444L49.779 22.8538L61.2449 26.5438C62.9558 34.6514 59.886 42.0374 53.4474 45.1103Z" fill="black"/>
<path d="M55.3066 30.9871L49.2523 36.3819L46.5839 33.7141C46.3683 33.5065 46.0798 33.3918 45.7804 33.3946C45.4811 33.3975 45.1948 33.5177 44.9832 33.7293C44.7715 33.941 44.6513 34.2273 44.6485 34.5267C44.6457 34.826 44.7604 35.1145 44.968 35.3301L48.3986 38.7607C48.6048 38.967 48.882 39.0867 49.1736 39.0951C49.4651 39.1035 49.7489 39 49.9666 38.8059L56.8266 32.6936C57.0458 32.4901 57.1765 32.2089 57.1907 31.9102C57.2048 31.6115 57.1014 31.3191 56.9025 31.0958C56.7036 30.8725 56.4251 30.7361 56.1267 30.7158C55.8284 30.6955 55.534 30.7929 55.3066 30.9871Z" fill="black"/>
</svg>
