<svg width="100" height="100" viewBox="0 0 100 100" fill="none" xmlns="http://www.w3.org/2000/svg">
<path d="M67.4009 60.8454C67.2773 60.6133 67.0925 60.4195 66.8666 60.2849C66.6406 60.1504 66.3822 60.0803 66.1192 60.0822H58.9189V47.1216C58.9189 46.7396 58.7671 46.3733 58.4971 46.1033C58.227 45.8332 57.8607 45.6815 57.4788 45.6815H43.0781C42.6962 45.6815 42.3299 45.8332 42.0598 46.1033C41.7898 46.3733 41.638 46.7396 41.638 47.1216V60.0822H34.4377C34.175 60.0826 33.9174 60.1549 33.6928 60.2912C33.4682 60.4275 33.2852 60.6227 33.1636 60.8556C33.042 61.0884 32.9864 61.3501 33.0028 61.6123C33.0193 61.8745 33.1071 62.1272 33.2568 62.3431L49.0976 85.3842C49.2303 85.5743 49.407 85.7296 49.6126 85.8368C49.8181 85.944 50.0466 86 50.2785 86C50.5103 86 50.7388 85.944 50.9443 85.8368C51.1499 85.7296 51.3266 85.5743 51.4593 85.3842L67.3001 62.3431C67.4529 62.1269 67.5432 61.8727 67.561 61.6084C67.5788 61.3442 67.5234 61.0802 67.4009 60.8454ZM50.2785 82.0144L37.1738 62.9623H43.0781C43.46 62.9623 43.8263 62.8106 44.0964 62.5405C44.3665 62.2705 44.5182 61.9042 44.5182 61.5222V48.5616H56.0387V61.5222C56.0387 61.9042 56.1904 62.2705 56.4605 62.5405C56.7306 62.8106 57.0969 62.9623 57.4788 62.9623H63.3831L50.2785 82.0144ZM43.0781 41.3613H57.4788C57.8607 41.3613 58.227 41.2096 58.4971 40.9395C58.7671 40.6694 58.9189 40.3032 58.9189 39.9212V31.2808C58.9189 30.8989 58.7671 30.5326 58.4971 30.2625C58.227 29.9925 57.8607 29.8407 57.4788 29.8407H43.0781C42.6962 29.8407 42.3299 29.9925 42.0598 30.2625C41.7898 30.5326 41.638 30.8989 41.638 31.2808V39.9212C41.638 40.3032 41.7898 40.6694 42.0598 40.9395C42.3299 41.2096 42.6962 41.3613 43.0781 41.3613ZM44.5182 32.7209H56.0387V38.4812H44.5182V32.7209ZM43.0781 25.5205H57.4788C57.8607 25.5205 58.227 25.3688 58.4971 25.0988C58.7671 24.8287 58.9189 24.4624 58.9189 24.0805V15.4401C58.9189 15.0581 58.7671 14.6919 58.4971 14.4218C58.227 14.1517 57.8607 14 57.4788 14H43.0781C42.6962 14 42.3299 14.1517 42.0598 14.4218C41.7898 14.6919 41.638 15.0581 41.638 15.4401V24.0805C41.638 24.4624 41.7898 24.8287 42.0598 25.0988C42.3299 25.3688 42.6962 25.5205 43.0781 25.5205ZM44.5182 16.8801H56.0387V22.6404H44.5182V16.8801Z" fill="#CCCCCC"/>
</svg>
