<svg width="64" height="44" viewBox="0 0 64 44" fill="none" xmlns="http://www.w3.org/2000/svg">
<path d="M60.8247 5.37066e-06H3.1753C2.33589 -0.00153615 1.53016 0.329963 0.934873 0.921771C0.339589 1.51358 0.00337527 2.31736 0 3.15676L0 36.8423C0.00325629 37.6818 0.339401 38.4858 0.934684 39.0778C1.52997 39.6697 2.33577 40.0014 3.1753 40H26V42H21.5C21.2348 42 20.9804 42.1054 20.7929 42.2929C20.6054 42.4804 20.5 42.7348 20.5 43C20.5 43.2652 20.6054 43.5196 20.7929 43.7071C20.9804 43.8946 21.2348 44 21.5 44H42.5C42.7652 44 43.0196 43.8946 43.2071 43.7071C43.3946 43.5196 43.5 43.2652 43.5 43C43.5 42.7348 43.3946 42.4804 43.2071 42.2929C43.0196 42.1054 42.7652 42 42.5 42H38V40H60.8247C61.6642 40.0014 62.47 39.6697 63.0653 39.0778C63.6606 38.4858 63.9967 37.6818 64 36.8423V3.15676C63.9966 2.31736 63.6604 1.51357 63.0651 0.921767C62.4698 0.329959 61.6641 -0.0015388 60.8247 5.37066e-06ZM3.1753 2.00001H60.8247C61.1338 1.99796 61.4311 2.11858 61.6515 2.33543C61.8718 2.55227 61.9971 2.84764 62 3.15676V34H2V3.15676C2.00287 2.84764 2.12821 2.55227 2.34853 2.33543C2.56885 2.11858 2.86617 1.99796 3.1753 2.00001ZM36 42H28V40H36V42ZM60.8247 38H3.1753C2.86605 38.0019 2.56866 37.8811 2.34834 37.6641C2.12802 37.4471 2.00275 37.1515 2 36.8423V36H62V36.8423C61.9972 37.1515 61.872 37.4471 61.6516 37.6641C61.4313 37.8811 61.1339 38.0019 60.8247 38Z" fill="black"/>
<path d="M32 21.5C33.5823 21.5 35.129 21.0308 36.4446 20.1518C37.7602 19.2727 38.7855 18.0233 39.391 16.5615C39.9965 15.0997 40.155 13.4911 39.8463 11.9393C39.5376 10.3874 38.7757 8.96197 37.6569 7.84315C36.538 6.72433 35.1126 5.9624 33.5607 5.65372C32.0089 5.34504 30.4003 5.50347 28.9385 6.10897C27.4767 6.71447 26.2273 7.73985 25.3482 9.05544C24.4692 10.371 24 11.9178 24 13.5C24.0024 15.621 24.8461 17.6544 26.3458 19.1542C27.8456 20.6539 29.879 21.4976 32 21.5ZM32 7.5C33.1867 7.5 34.3467 7.8519 35.3334 8.51119C36.3201 9.17047 37.0892 10.1075 37.5433 11.2039C37.9974 12.3003 38.1162 13.5067 37.8847 14.6705C37.6532 15.8344 37.0818 16.9035 36.2426 17.7426C35.4035 18.5818 34.3344 19.1532 33.1705 19.3847C32.0067 19.6162 30.8003 19.4974 29.7039 19.0433C28.6075 18.5892 27.6705 17.8201 27.0112 16.8334C26.3519 15.8467 26 14.6867 26 13.5C26.0017 11.9092 26.6344 10.3841 27.7593 9.25928C28.8841 8.13444 30.4092 7.50174 32 7.5Z" fill="black"/>
<path d="M29.7471 15.6417C29.9004 15.8218 30.112 15.9424 30.345 15.9825C30.578 16.0227 30.8178 15.9799 31.0225 15.8615L35.2583 13.3615C35.4868 13.2267 35.6523 13.0067 35.7185 12.7498C35.7847 12.4929 35.7462 12.2203 35.6114 11.9918C35.5446 11.8787 35.4563 11.7799 35.3513 11.7009C35.2464 11.622 35.1269 11.5644 34.9997 11.5317C34.7428 11.4655 34.4702 11.504 34.2418 11.6388L30.7369 13.7076L30.0172 12.8468C29.847 12.6434 29.603 12.5159 29.3388 12.4923C29.0746 12.4688 28.8119 12.5512 28.6084 12.7213C28.405 12.8915 28.2775 13.1355 28.2539 13.3997C28.2304 13.6639 28.3128 13.9266 28.4829 14.13L29.7471 15.6417Z" fill="black"/>
<path d="M23.2422 26.5H40.7559C41.0211 26.5 41.2755 26.3946 41.463 26.2071C41.6505 26.0196 41.7559 25.7652 41.7559 25.5C41.7559 25.2348 41.6505 24.9804 41.463 24.7929C41.2755 24.6054 41.0211 24.5 40.7559 24.5H23.2422C22.977 24.5 22.7226 24.6054 22.5351 24.7929C22.3475 24.9804 22.2422 25.2348 22.2422 25.5C22.2422 25.7652 22.3475 26.0196 22.5351 26.2071C22.7226 26.3946 22.977 26.5 23.2422 26.5Z" fill="black"/>
<path d="M23.2422 30.5H29.7559C30.0211 30.5 30.2755 30.3946 30.463 30.2071C30.6505 30.0196 30.7559 29.7652 30.7559 29.5C30.7559 29.2348 30.6505 28.9804 30.463 28.7929C30.2755 28.6054 30.0211 28.5 29.7559 28.5H23.2422C22.977 28.5 22.7226 28.6054 22.5351 28.7929C22.3475 28.9804 22.2422 29.2348 22.2422 29.5C22.2422 29.7652 22.3475 30.0196 22.5351 30.2071C22.7226 30.3946 22.977 30.5 23.2422 30.5Z" fill="black"/>
</svg>
