<svg width="64" height="56" viewBox="0 0 64 56" fill="none" xmlns="http://www.w3.org/2000/svg">
<path d="M52.8478 16.1104H48.194V11.1523C48.194 8.311 47.125 5.60437 45.1839 3.53125C44.823 3.14575 44.218 3.126 43.8327 3.48688C43.4474 3.84775 43.4275 4.45263 43.7884 4.83788C45.3965 6.5555 46.2822 8.798 46.2822 11.1523V16.1104H26.8307C20.6814 16.1104 15.6785 21.1134 15.6785 27.2627V30.6825H14.1812C13.5856 30.6825 13.0255 30.9145 12.6041 31.3358L7.53062 36.4093V31.3055C7.53062 30.5236 7.112 29.7889 6.43787 29.3881C3.64612 27.7283 1.91175 24.6835 1.91175 21.4421V11.1523C1.91175 6.057 6.057 1.91175 11.1523 1.91175H37.0418C38.236 1.91175 39.3976 2.13587 40.4944 2.57812C40.984 2.77525 41.541 2.5385 41.7384 2.049C41.9358 1.55937 41.6989 1.00237 41.2093 0.805C39.8844 0.27075 38.4821 0 37.0418 0H11.1523C5.00288 0 0 5.00288 0 11.1523V21.4421C0 25.3544 2.0925 29.0288 5.46088 31.0314C5.55837 31.0894 5.61888 31.1944 5.61888 31.3056V36.8709C5.61888 37.5693 6.03575 38.1931 6.681 38.4605C7.11163 38.6675 7.99087 38.6376 8.55612 38.0876L13.9559 32.6878C14.0161 32.6275 14.0961 32.5944 14.1812 32.5944H15.6785V37.5525C15.6785 39.0578 15.9735 40.5184 16.5553 41.8939C16.7609 42.38 17.3218 42.6071 17.808 42.4019C18.2943 42.1963 18.5216 41.6354 18.3161 41.1491C17.8346 40.0106 17.5904 38.8006 17.5904 37.5526V27.2629C17.5904 22.1675 21.7356 18.0223 26.8309 18.0223H52.8478C57.943 18.0223 62.0882 22.1675 62.0882 27.2629V37.5526C62.0882 40.8066 60.4244 43.7601 57.6372 45.4534C56.9804 45.8525 56.5723 46.5809 56.5723 47.3541V53.5886L50.43 47.4463C50.0088 47.025 49.4486 46.793 48.8529 46.793H26.8307C24.5119 46.793 22.2945 45.9305 20.5869 44.3645C20.1979 44.0079 19.5933 44.0339 19.2362 44.4229C18.8794 44.812 18.9055 45.4166 19.2946 45.7735C21.3557 47.6639 24.032 48.7049 26.8306 48.7049H48.8526C48.9365 48.7049 49.0186 48.7389 49.0779 48.7983L55.5465 55.2669C56.046 55.6508 56.5343 55.9475 57.4215 55.6398C58.0667 55.3724 58.4836 54.7485 58.4836 54.0501V47.354C58.4836 47.2441 58.5396 47.1418 58.6296 47.0871C61.9925 45.0443 64 41.48 64 37.5525V27.2627C64 21.1134 58.9971 16.1104 52.8478 16.1104Z" fill="black"/>
<path d="M37.1421 38.9068C36.5816 38.1148 35.5605 37.5838 34.3958 37.5838C32.63 37.5838 31.1935 38.8044 31.1935 40.3048C31.1935 41.8051 32.6301 43.0257 34.3958 43.0257C35.9453 43.0257 37.241 42.0858 37.5353 40.8418C38.9453 40.2479 40.0553 39.0646 40.5371 37.5674C41.9331 37.2496 42.9785 35.9991 42.9785 34.5081V31.0612C42.9785 29.6218 42.0042 28.4066 40.6807 28.0381C40.3692 26.1182 39.4257 24.3566 37.9793 23.0252C36.3655 21.5396 34.268 20.7214 32.0732 20.7214C27.7543 20.7214 24.142 23.8323 23.4648 28.0382C22.1418 28.4069 21.168 29.6221 21.168 31.0611V34.5079C21.168 36.2384 22.5758 37.6463 24.3063 37.6463C26.0368 37.6463 27.4447 36.2384 27.4447 34.5079V31.0611C27.4447 29.7117 26.5886 28.5586 25.3911 28.1161C26.0108 24.9492 28.7792 22.6332 32.0732 22.6332C35.3255 22.6332 38.1287 24.9897 38.7528 28.1171C37.5566 28.5602 36.7017 29.7126 36.7017 31.0611V34.5079C36.7017 35.7834 37.467 36.8829 38.5622 37.3733C38.2583 38.0263 37.7585 38.5597 37.1421 38.9068ZM34.3958 41.1141C33.6352 41.1141 33.1052 40.6877 33.1052 40.3049C33.1052 39.9222 33.6352 39.4957 34.3958 39.4957C35.1565 39.4957 35.6866 39.9222 35.6866 40.3049C35.6866 40.6877 35.1563 41.1141 34.3958 41.1141ZM25.533 34.5082C25.533 35.1846 24.9827 35.7348 24.3063 35.7348C23.63 35.7348 23.0797 35.1846 23.0797 34.5082V31.0613C23.0797 30.3849 23.63 29.8347 24.3063 29.8347C24.9827 29.8347 25.533 30.3849 25.533 31.0613V34.5082ZM38.6135 31.0613C38.6135 30.3849 39.1637 29.8347 39.8401 29.8347C40.5165 29.8347 41.0667 30.3849 41.0667 31.0613V34.5082C41.0667 35.1846 40.5165 35.7348 39.8401 35.7348C39.1637 35.7348 38.6135 35.1846 38.6135 34.5082V31.0613Z" fill="black"/>
<path d="M45.4598 26.139H53.0737C53.6015 26.139 54.0295 25.7112 54.0295 25.1832C54.0295 24.6552 53.6015 24.2273 53.0737 24.2273H45.4598C44.9319 24.2273 44.5039 24.6552 44.5039 25.1832C44.5039 25.7112 44.9319 26.139 45.4598 26.139Z" fill="black"/>
<path d="M45.4598 30.4183H51.3307C51.8585 30.4183 52.2865 29.9905 52.2865 29.4625C52.2865 28.9345 51.8585 28.5066 51.3307 28.5066H45.4598C44.9319 28.5066 44.5039 28.9345 44.5039 29.4625C44.5039 29.9905 44.9319 30.4183 45.4598 30.4183Z" fill="black"/>
<path d="M9.40559 13.9279C10.1927 13.9279 10.8307 13.2898 10.8307 12.5028C10.8307 11.7157 10.1927 11.0776 9.40559 11.0776C8.61852 11.0776 7.98047 11.7157 7.98047 12.5028C7.98047 13.2898 8.61852 13.9279 9.40559 13.9279Z" fill="black"/>
<path d="M13.722 13.9279C14.5091 13.9279 15.1471 13.2898 15.1471 12.5028C15.1471 11.7157 14.5091 11.0776 13.722 11.0776C12.9349 11.0776 12.2969 11.7157 12.2969 12.5028C12.2969 13.2898 12.9349 13.9279 13.722 13.9279Z" fill="black"/>
<path d="M18.0111 13.9279C18.7981 13.9279 19.4362 13.2898 19.4362 12.5028C19.4362 11.7157 18.7981 11.0776 18.0111 11.0776C17.224 11.0776 16.5859 11.7157 16.5859 12.5028C16.5859 13.2898 17.224 13.9279 18.0111 13.9279Z" fill="black"/>
</svg>
