<svg width="69" height="55" viewBox="0 0 69 55" fill="none" xmlns="http://www.w3.org/2000/svg">
<path d="M43.1781 20.51C43.1781 20.0348 43.5603 19.6526 44.0355 19.6526H60.3734C60.8455 19.6526 61.2276 20.0347 61.2276 20.51C61.2276 20.982 60.8455 21.3642 60.3734 21.3642H44.0355C43.5603 21.3642 43.1781 20.9821 43.1781 20.51ZM58.7294 23.0789H45.6796C45.2044 23.0789 44.8222 23.461 44.8222 23.933C44.8222 24.4083 45.2043 24.7904 45.6796 24.7904H58.7294C59.2014 24.7904 59.5835 24.4083 59.5835 23.933C59.5835 23.461 59.2014 23.0789 58.7294 23.0789ZM47.77 28.2166H56.6488C57.1208 28.2166 57.503 27.8312 57.503 27.3592C57.503 26.8871 57.1209 26.5018 56.6488 26.5018H47.7667C47.2947 26.5018 46.9126 26.8871 46.9126 27.3592C46.9126 27.8312 47.2947 28.2166 47.7667 28.2166H47.77ZM44.0355 48.6129H60.3734C60.8455 48.6129 61.2276 48.2275 61.2276 47.7555C61.2276 47.2834 60.8455 46.8981 60.3734 46.8981H44.0355C43.5603 46.8981 43.1781 47.2834 43.1781 47.7555C43.1781 48.2275 43.5603 48.6129 44.0355 48.6129ZM44.8222 44.3325V44.3293C44.8222 44.5573 44.9121 44.7757 45.0727 44.9362C45.2332 45.0968 45.4516 45.1867 45.6796 45.1867H58.7294C59.2014 45.1867 59.5835 44.8046 59.5835 44.3293C59.5835 43.8573 59.2014 43.4751 58.7294 43.4751H45.6796C45.4484 43.4751 45.2268 43.565 45.0663 43.732C44.9057 43.8958 44.819 44.1173 44.8222 44.3485V44.3325ZM47.7668 41.7637L56.6488 41.7605C57.1209 41.7605 57.503 41.3784 57.503 40.9063C57.503 40.4311 57.1209 40.0489 56.6488 40.0489H47.7668C47.2947 40.0489 46.9126 40.431 46.9126 40.9063C46.9126 41.3783 47.2947 41.7605 47.7668 41.7605V41.7637ZM0.03125 22.8117V20.3038C0.03125 18.0432 1.86159 16.2097 4.12218 16.2097H5.09835V11.878C5.09835 10.4587 6.25109 9.30913 7.66721 9.30913H9.56816V3.31403C9.56816 1.89471 10.7209 0.745178 12.137 0.745178H22.1042C23.5235 0.745178 24.673 1.89471 24.673 3.31403V5.5586H29.9327C30.3855 5.5586 30.8222 5.73842 31.1433 6.05953C31.4645 6.38064 31.6443 6.81735 31.6443 7.27014V16.2098H35.9246C35.9728 16.2065 36.0241 16.2065 36.0723 16.2098V15.8758C36.1943 14.9542 36.6632 14.1162 37.3825 13.5285C37.527 13.4257 37.7004 13.3679 37.877 13.3679H66.529C66.7088 13.3647 66.8886 13.4225 67.0331 13.5285C67.7492 14.1193 68.2148 14.9574 68.3368 15.8758C68.568 17.3657 68.0285 19.0452 66.7537 20.8754H66.7505C67.884 25.2103 68.4331 29.6769 68.3881 34.1562C68.4267 38.6132 67.8776 43.0572 66.7505 47.3696C68.0253 49.1935 68.5647 50.8728 68.3335 52.3628H68.3368C68.218 53.2811 67.7523 54.1224 67.0331 54.7069C66.8886 54.8129 66.7088 54.8706 66.529 54.8706H37.877C37.7004 54.8706 37.527 54.8128 37.3825 54.7069C36.66 54.1225 36.1912 53.2843 36.0723 52.3628C35.9278 51.027 36.2264 49.6815 36.9265 48.5352H28.8346C28.4011 52.1476 25.3345 54.8674 21.6931 54.8674C18.055 54.8674 14.9885 52.1476 14.5517 48.5352C12.8499 48.365 11.4337 47.1576 11.0003 45.504L5.32315 23.6691H0.885483C0.413455 23.6691 0.03125 23.2837 0.03125 22.8117ZM14.587 46.7888C15.0366 43.1892 18.0967 40.4886 21.7252 40.4886C25.3506 40.4886 28.4107 43.1892 28.8602 46.7888H37.5171C36.4799 42.6304 35.979 38.3564 36.0207 34.0727C35.9725 30.5663 36.3097 27.0662 37.0226 23.6337H7.09564L12.6604 45.042C12.8948 45.9475 13.6398 46.6282 14.5614 46.7888H14.587ZM27.2093 47.6462V47.6429C27.2125 45.4209 25.8767 43.4172 23.8249 42.5662C21.773 41.7153 19.4096 42.1841 17.8395 43.7543C16.266 45.3246 15.7972 47.6879 16.6514 49.7397C17.5023 51.7916 19.5061 53.1274 21.7281 53.1242C24.7304 53.1049 27.158 50.6805 27.1837 47.6782L27.2093 47.6462ZM39.2834 20.2174C39.4439 20.4325 39.4953 20.7119 39.4182 20.972C38.2623 25.2523 37.6874 29.6707 37.7068 34.1056C37.6843 38.5626 38.2591 43 39.4182 47.3033C39.4921 47.557 39.4407 47.8332 39.2834 48.0483C36.9971 51.1213 37.8192 52.6723 38.2205 53.186H66.1861C66.5874 52.7076 67.4191 51.1566 65.1232 48.0483H65.1264C64.969 47.8332 64.9209 47.557 64.9979 47.3033C66.1507 43.0166 66.7255 38.5947 66.7094 34.1574C66.7447 29.7068 66.1828 25.272 65.0397 20.9728C64.9626 20.7159 65.0108 20.4365 65.1682 20.2182C66.3338 18.6608 66.8796 17.2543 66.6838 16.1594C66.6292 15.7741 66.4719 15.4112 66.2311 15.1062H38.2211C37.8197 15.5846 36.988 17.1356 39.284 20.2183L39.2834 20.2174ZM29.9327 7.27032H22.2262V16.2099H29.9327V7.27032ZM11.3507 9.35105H16.5815C18.0008 9.35105 19.1504 10.5006 19.1504 11.9199V16.2516H20.5118V7.27007C20.5118 6.32284 21.2793 5.5586 22.2265 5.5586H22.9715V3.33977C22.9715 3.11178 22.8815 2.89342 22.721 2.73287C22.5604 2.57232 22.3421 2.48241 22.1141 2.48241H12.1634C11.6914 2.48241 11.3092 2.86774 11.3092 3.33979L11.3507 9.35105ZM6.81344 16.2099H17.4037V11.8782C17.4037 11.6502 17.3138 11.4319 17.1532 11.2713C16.9927 11.1108 16.7743 11.0209 16.5496 11.0209H7.66748C7.19545 11.0209 6.8133 11.403 6.8133 11.8783L6.81344 16.2099ZM1.67573 21.9546H37.0133C37.1385 21.9578 37.2606 21.9867 37.373 22.0413C37.4918 21.5628 37.5881 21.1839 37.6652 20.9013C36.9908 19.9894 36.4899 18.9586 36.1913 17.8637C36.0981 17.899 35.9986 17.9183 35.8991 17.9215H4.12251C3.49315 17.9215 2.88626 18.1687 2.43669 18.6183C1.99035 19.0646 1.73988 19.6715 1.74309 20.3041L1.67573 21.9546ZM25.2064 47.6431C25.2161 49.1009 24.3427 50.4175 22.994 50.9762C21.6486 51.5349 20.1009 51.2203 19.0765 50.1831C18.0554 49.1427 17.7632 47.5886 18.338 46.2528C18.916 44.9138 20.2454 44.0596 21.7032 44.0917C22.6537 44.0917 23.5624 44.4706 24.2335 45.1417C24.9047 45.816 25.2771 46.728 25.2739 47.6784L25.2064 47.6431ZM23.495 47.6431H23.4918C23.495 46.8885 23.0422 46.2046 22.3454 45.9123C21.6454 45.6201 20.8427 45.7807 20.3064 46.3169C19.7701 46.85 19.6128 47.6559 19.9018 48.3528C20.194 49.0528 20.8779 49.5055 21.6358 49.5023C22.1335 49.5184 22.6152 49.3353 22.978 48.9917C23.3409 48.6482 23.5496 48.1761 23.5624 47.6784L23.495 47.6431Z" fill="black"/>
</svg>
