<svg width="64" height="64" viewBox="0 0 64 64" fill="none" xmlns="http://www.w3.org/2000/svg">
<path d="M57.0182 0C53.1677 0 50.0364 3.13135 50.0364 6.98182C50.0364 8.18618 50.3424 9.31956 50.8812 10.3098L39.4438 21.7472C37.8671 20.5196 35.8935 19.7818 33.7455 19.7818C31.5974 19.7818 29.6239 20.5196 28.046 21.746L19.122 12.8221C19.5316 12.1297 19.7818 11.3338 19.7818 10.4727C19.7818 7.90575 17.6943 5.81818 15.1273 5.81818C12.5603 5.81818 10.4727 7.90575 10.4727 10.4727C10.4727 13.0397 12.5603 15.1273 15.1273 15.1273C15.9884 15.1273 16.7843 14.8771 17.4767 14.4675L26.4006 23.3914C25.1741 24.9693 24.4364 26.9428 24.4364 29.0909C24.4364 31.239 25.1741 33.2125 26.4006 34.7892L11.6643 49.5267C10.4239 48.4015 8.78429 47.7091 6.98182 47.7091C3.13135 47.7091 0 50.8404 0 54.6909C0 58.5414 3.13135 61.6727 6.98182 61.6727C10.8323 61.6727 13.9636 58.5414 13.9636 54.6909C13.9636 53.4865 13.6576 52.3532 13.1188 51.3629L28.0471 36.4346C29.3341 37.4353 30.8864 38.1056 32.583 38.3185V50.1411C29.2864 50.6973 26.7648 53.5645 26.7648 57.0182C26.7648 60.8687 29.8961 64 33.7466 64C37.5971 64 40.7284 60.8687 40.7284 57.0182C40.7284 53.5657 38.2068 50.6985 34.9103 50.1411V38.3185C36.6068 38.1056 38.1591 37.4353 39.4461 36.4346L48.37 45.3585C47.9593 46.0521 47.7091 46.848 47.7091 47.7091C47.7091 50.2761 49.7967 52.3636 52.3636 52.3636C54.9306 52.3636 57.0182 50.2761 57.0182 47.7091C57.0182 45.1421 54.9306 43.0545 52.3636 43.0545C51.5025 43.0545 50.7066 43.3047 50.0143 43.7143L41.0903 34.7904C42.3168 33.2125 43.0545 31.239 43.0545 29.0909C43.0545 26.9428 42.3168 24.9693 41.0903 23.3926L52.3369 12.146C53.5761 13.2713 55.2157 13.9636 57.0182 13.9636C60.8687 13.9636 64 10.8323 64 6.98182C64 3.13135 60.8687 0 57.0182 0ZM12.8 10.4727C12.8 9.18924 13.8438 8.14545 15.1273 8.14545C16.4108 8.14545 17.4545 9.18924 17.4545 10.4727C17.4545 11.7562 16.4108 12.8 15.1273 12.8C13.8438 12.8 12.8 11.7562 12.8 10.4727ZM6.98182 59.3455C4.41484 59.3455 2.32727 57.2579 2.32727 54.6909C2.32727 52.1239 4.41484 50.0364 6.98182 50.0364C9.5488 50.0364 11.6364 52.1239 11.6364 54.6909C11.6364 57.2579 9.5488 59.3455 6.98182 59.3455ZM38.4 57.0182C38.4 59.5852 36.3124 61.6727 33.7455 61.6727C31.1785 61.6727 29.0909 59.5852 29.0909 57.0182C29.0909 54.4512 31.1785 52.3636 33.7455 52.3636C36.3124 52.3636 38.4 54.4512 38.4 57.0182ZM33.7455 36.0727C29.895 36.0727 26.7636 32.9414 26.7636 29.0909C26.7636 25.2404 29.895 22.1091 33.7455 22.1091C37.5959 22.1091 40.7273 25.2404 40.7273 29.0909C40.7273 32.9414 37.5959 36.0727 33.7455 36.0727ZM54.6909 47.7091C54.6909 48.9926 53.6471 50.0364 52.3636 50.0364C51.0801 50.0364 50.0364 48.9926 50.0364 47.7091C50.0364 46.4256 51.0801 45.3818 52.3636 45.3818C53.6471 45.3818 54.6909 46.4256 54.6909 47.7091ZM57.0182 11.6364C54.4512 11.6364 52.3636 9.5488 52.3636 6.98182C52.3636 4.41484 54.4512 2.32727 57.0182 2.32727C59.5852 2.32727 61.6727 4.41484 61.6727 6.98182C61.6727 9.5488 59.5852 11.6364 57.0182 11.6364Z" fill="black"/>
</svg>
