<svg width="90" height="90" viewBox="0 0 90 90" fill="none" xmlns="http://www.w3.org/2000/svg">
<rect width="90" height="90" rx="45" fill="#032624"/>
<path d="M30.9393 56.9393C30.3536 57.5251 30.3536 58.4749 30.9393 59.0607C31.5251 59.6464 32.4749 59.6464 33.0607 59.0607L30.9393 56.9393ZM59.5 32C59.5 31.1716 58.8284 30.5 58 30.5H44.5C43.6716 30.5 43 31.1716 43 32C43 32.8284 43.6716 33.5 44.5 33.5H56.5V45.5C56.5 46.3284 57.1716 47 58 47C58.8284 47 59.5 46.3284 59.5 45.5V32ZM33.0607 59.0607L59.0607 33.0607L56.9393 30.9393L30.9393 56.9393L33.0607 59.0607Z" fill="#FBFBFB"/>
</svg>
