<svg width="1222" height="2090" viewBox="0 0 1222 2090" fill="none" xmlns="http://www.w3.org/2000/svg">
<g opacity="0.5">
<ellipse cx="97" cy="314" rx="97" ry="314" transform="matrix(-1 0 0 1 1222 731)" fill="#0D2E2C"/>
<ellipse cx="95" cy="424" rx="95" ry="424" transform="matrix(-1 0 0 1 1014 621)" fill="#0D2E2C"/>
<ellipse cx="97" cy="516" rx="97" ry="516" transform="matrix(-1 0 0 1 810 529)" fill="#0D2E2C"/>
<ellipse cx="97" cy="622" rx="97" ry="622" transform="matrix(-1 0 0 1 602 423)" fill="#0D2E2C"/>
<ellipse cx="95" cy="740" rx="95" ry="740" transform="matrix(-1 0 0 1 394 305)" fill="#0D2E2C"/>
<ellipse cx="95" cy="846" rx="95" ry="846" transform="matrix(-1 0 0 1 190 199)" fill="#0D2E2C"/>
</g>
</svg>
