<svg width="24" height="24" viewBox="0 0 24 24" fill="none" xmlns="http://www.w3.org/2000/svg">
<g clip-path="url(#clip0_3257_5467)">
<path d="M6.08577 23.9151C4.65848 23.8502 3.88314 23.6127 3.36743 23.4115C2.6841 23.1455 2.19693 22.8288 1.68407 22.3166C1.17122 21.8045 0.853806 21.3173 0.589176 20.634C0.388029 20.1183 0.150504 19.3429 0.0855946 17.9157C0.0142658 16.3728 0 15.9099 0 12.0011C0 8.09225 0.0156923 7.63004 0.0848813 6.08577C0.14979 4.65848 0.388742 3.88457 0.588463 3.36743C0.854519 2.6841 1.17193 2.19693 1.68336 1.68336C2.1955 1.17122 2.68268 0.853092 3.36672 0.588463C3.88243 0.387315 4.65777 0.14979 6.08506 0.0848813C7.62861 0.0142658 8.09225 0 11.9996 0C15.9085 0 16.3707 0.0156923 17.9149 0.0848813C19.3422 0.14979 20.1161 0.388742 20.6333 0.588463C21.3166 0.853092 21.8038 1.17122 22.3166 1.68336C22.8295 2.1955 23.1455 2.68339 23.4115 3.36672C23.6127 3.88243 23.8502 4.65777 23.9151 6.08506C23.9857 7.62933 24 8.09154 24 12.0004C24 15.9077 23.9857 16.3714 23.9151 17.9157C23.8502 19.3429 23.6113 20.1183 23.4115 20.634C23.1455 21.3173 22.8288 21.8045 22.3166 22.3166C21.8045 22.8288 21.3166 23.1455 20.6333 23.4115C20.1176 23.6127 19.3422 23.8502 17.9149 23.9151C16.3721 23.9857 15.9085 24 11.9996 24C8.09225 24 7.62862 23.9864 6.08577 23.9151Z" fill="#032624"/>
<path d="M9.05343 12.0509C9.05343 10.4095 10.3836 9.07859 12.025 9.07859C13.6663 9.07859 14.9973 10.4095 14.9973 12.0509C14.9973 13.6922 13.6663 15.0231 12.025 15.0231C10.3836 15.0231 9.05343 13.6922 9.05343 12.0509ZM7.44668 12.0509C7.44668 14.5795 9.49638 16.6292 12.025 16.6292C14.5536 16.6292 16.6033 14.5795 16.6033 12.0509C16.6033 9.52226 14.5536 7.47256 12.025 7.47256C9.49638 7.47256 7.44675 9.52212 7.44675 12.0509M15.7147 7.29102C15.7146 7.50264 15.7773 7.70952 15.8948 7.88552C16.0123 8.06151 16.1793 8.19872 16.3748 8.27978C16.5702 8.36083 16.7854 8.38211 16.9929 8.34091C17.2005 8.29971 17.3912 8.19788 17.5409 8.04831C17.6906 7.89874 17.7925 7.70813 17.8339 7.5006C17.8753 7.29307 17.8542 7.07794 17.7733 6.8824C17.6924 6.68686 17.5553 6.51971 17.3794 6.40207C17.2035 6.28444 16.9967 6.2216 16.785 6.22152H16.7846C16.501 6.22165 16.229 6.33436 16.0284 6.53489C15.8277 6.73542 15.7149 7.00737 15.7147 7.29102ZM8.42288 19.3084C7.5536 19.2688 7.08112 19.124 6.76713 19.0017C6.35085 18.8397 6.05384 18.6466 5.74156 18.3348C5.42928 18.0229 5.23598 17.7262 5.07464 17.3099C4.95224 16.9961 4.80744 16.5235 4.76792 15.6542C4.7247 14.7144 4.71607 14.432 4.71607 12.051C4.71607 9.66998 4.72541 9.38845 4.76792 8.44783C4.80751 7.57855 4.95338 7.10685 5.07464 6.79208C5.2367 6.3758 5.42971 6.07879 5.74156 5.76651C6.05341 5.45424 6.35014 5.26093 6.76713 5.09959C7.08097 4.97719 7.5536 4.83239 8.42288 4.79287C9.36271 4.74965 9.64503 4.74102 12.025 4.74102C14.4049 4.74102 14.6875 4.75022 15.6282 4.79302C16.4974 4.83261 16.9691 4.97847 17.2839 5.09973C17.7002 5.26108 17.9972 5.45481 18.3095 5.76666C18.6218 6.07851 18.8143 6.37595 18.9764 6.79222C19.0988 7.10607 19.2436 7.57869 19.2831 8.44798C19.3263 9.38859 19.335 9.67012 19.335 12.0512C19.335 14.4322 19.3263 14.7137 19.2831 15.6543C19.2435 16.5236 19.098 16.9961 18.9764 17.3101C18.8143 17.7264 18.6213 18.0234 18.3095 18.3349C17.9976 18.6465 17.7002 18.8398 17.2839 19.0019C16.9701 19.1243 16.4974 19.2691 15.6282 19.3086C14.6883 19.3518 14.406 19.3604 12.025 19.3604C9.64396 19.3604 9.36243 19.3518 8.42288 19.3086M8.34906 3.18876C7.39988 3.23199 6.75129 3.38249 6.18487 3.6029C5.59862 3.83051 5.10167 4.13587 4.60544 4.63132C4.1092 5.12677 3.80463 5.62378 3.57702 6.21075C3.35661 6.77753 3.20611 7.42576 3.16288 8.37494C3.11894 9.32561 3.10889 9.62954 3.10889 12.0509C3.10889 14.4722 3.11894 14.7761 3.16288 15.7268C3.20611 16.676 3.35661 17.3242 3.57702 17.891C3.80463 18.4772 4.10927 18.9752 4.60544 19.4704C5.1016 19.9657 5.59791 20.2706 6.18487 20.4988C6.75236 20.7192 7.39988 20.8697 8.34906 20.913C9.30023 20.9562 9.60366 20.967 12.025 20.967C14.4463 20.967 14.7502 20.9569 15.7009 20.913C16.6502 20.8697 17.2983 20.7192 17.8651 20.4988C18.4514 20.2706 18.9483 19.9659 19.4445 19.4704C19.9408 18.975 20.2447 18.4772 20.473 17.891C20.6934 17.3242 20.8446 16.676 20.8871 15.7268C20.9303 14.7754 20.9404 14.4722 20.9404 12.0509C20.9404 9.62954 20.9303 9.32561 20.8871 8.37494C20.8439 7.42569 20.6934 6.77717 20.473 6.21075C20.2447 5.6245 19.94 5.12755 19.4445 4.63132C18.9491 4.13508 18.4514 3.83051 17.8658 3.6029C17.2983 3.38249 16.6501 3.23127 15.7016 3.18876C14.7508 3.14532 14.447 3.13477 12.0261 3.13477C9.60509 3.13477 9.30058 3.14482 8.34941 3.18876" fill="#FAF9F8"/>
</g>
<defs>
<clipPath id="clip0_3257_5467">
<rect width="24" height="24" fill="white"/>
</clipPath>
</defs>
</svg>
