<svg width="65" height="64" viewBox="0 0 65 64" fill="none" xmlns="http://www.w3.org/2000/svg">
<g clip-path="url(#clip0_2241_13813)">
<path d="M51.1667 16H13.8333C10.8878 16 8.5 18.3878 8.5 21.3333V50.6667C8.5 53.6122 10.8878 56 13.8333 56H51.1667C54.1122 56 56.5 53.6122 56.5 50.6667V21.3333C56.5 18.3878 54.1122 16 51.1667 16Z" stroke="black" stroke-width="2"/>
<path d="M8.5 26.6667C8.5 21.6373 8.5 19.1253 10.0627 17.5627C11.6253 16 14.1373 16 19.1667 16H45.8333C50.8627 16 53.3747 16 54.9373 17.5627C56.5 19.1253 56.5 21.6373 56.5 26.6667H8.5Z" fill="black"/>
<path d="M19.166 8V16M45.8327 8V16" stroke="black" stroke-width="2" stroke-linecap="round"/>
<path d="M28.4993 32H20.4993C19.763 32 19.166 32.597 19.166 33.3333V36C19.166 36.7364 19.763 37.3333 20.4993 37.3333H28.4993C29.2357 37.3333 29.8327 36.7364 29.8327 36V33.3333C29.8327 32.597 29.2357 32 28.4993 32Z" fill="black"/>
<path d="M28.4993 42.6667H20.4993C19.763 42.6667 19.166 43.2637 19.166 44.0001V46.6667C19.166 47.4031 19.763 48.0001 20.4993 48.0001H28.4993C29.2357 48.0001 29.8327 47.4031 29.8327 46.6667V44.0001C29.8327 43.2637 29.2357 42.6667 28.4993 42.6667Z" fill="black"/>
<path d="M44.4993 32H36.4993C35.763 32 35.166 32.597 35.166 33.3333V36C35.166 36.7364 35.763 37.3333 36.4993 37.3333H44.4993C45.2357 37.3333 45.8327 36.7364 45.8327 36V33.3333C45.8327 32.597 45.2357 32 44.4993 32Z" fill="black"/>
<path d="M44.4993 42.6667H36.4993C35.763 42.6667 35.166 43.2637 35.166 44.0001V46.6667C35.166 47.4031 35.763 48.0001 36.4993 48.0001H44.4993C45.2357 48.0001 45.8327 47.4031 45.8327 46.6667V44.0001C45.8327 43.2637 45.2357 42.6667 44.4993 42.6667Z" fill="black"/>
</g>
<defs>
<clipPath id="clip0_2241_13813">
<rect width="64" height="64" fill="white" transform="translate(0.5)"/>
</clipPath>
</defs>
</svg>
