<svg width="64" height="64" viewBox="0 0 64 64" fill="none" xmlns="http://www.w3.org/2000/svg">
<g clip-path="url(#clip0_2241_13822)">
<path d="M34.1673 24.0002C34.1673 24.7074 33.8864 25.3857 33.3863 25.8858C32.8862 26.3859 32.2079 26.6668 31.5007 26.6668C30.7934 26.6668 30.1151 26.3859 29.615 25.8858C29.1149 25.3857 28.834 24.7074 28.834 24.0002C28.834 23.2929 29.1149 22.6146 29.615 22.1145C30.1151 21.6144 30.7934 21.3335 31.5007 21.3335C32.2079 21.3335 32.8862 21.6144 33.3863 22.1145C33.8864 22.6146 34.1673 23.2929 34.1673 24.0002Z" stroke="black" stroke-width="2" stroke-linejoin="round"/>
<path d="M46.1673 25.3334C46.1673 33.4347 40.834 42.6667 31.5007 53.3334C22.1673 42.6667 16.834 33.4347 16.834 25.3334C16.834 21.4436 18.3792 17.713 21.1298 14.9625C23.8803 12.212 27.6108 10.6667 31.5007 10.6667C35.3905 10.6667 39.121 12.212 41.8716 14.9625C44.6221 17.713 46.1673 21.4436 46.1673 25.3334Z" stroke="black" stroke-width="2" stroke-linejoin="round"/>
</g>
<defs>
<clipPath id="clip0_2241_13822">
<rect width="64" height="64" fill="white"/>
</clipPath>
</defs>
</svg>
