<svg xmlns="http://www.w3.org/2000/svg" xmlns:xlink="http://www.w3.org/1999/xlink" width="1000" zoomAndPan="magnify" viewBox="0 0 750 749.999995" height="1000" preserveAspectRatio="xMidYMid meet" version="1.0"><rect x="-75" width="900" fill="#ffffff" y="-74.999999" height="899.999994" fill-opacity="1"/><rect x="-75" width="900" fill="#ffffff" y="-74.999999" height="899.999994" fill-opacity="1"/><path fill="#000000" d="M 375 675 C 209.257812 675 75 539.816406 75 375 C 75 210.183594 209.257812 75 375 75 C 540.742188 75 675 209.257812 675 375 C 675 540.742188 539.816406 675 375 675 Z M 375 93.519531 C 219.445312 93.519531 93.519531 219.445312 93.519531 375 C 93.519531 530.554688 219.445312 656.480469 375 656.480469 C 530.554688 656.480469 656.480469 530.554688 656.480469 375 C 656.480469 219.445312 529.628906 93.519531 375 93.519531 Z M 375 93.519531 " fill-opacity="1" fill-rule="nonzero"/><path stroke-linecap="butt" transform="matrix(0.539752, 0.520738, -0.520738, 0.539752, 215.703815, 328.495346)" fill="none" stroke-linejoin="miter" d="M -0.000400864 10.502837 L 305.931447 10.499722 " stroke="#000000" stroke-width="21" stroke-opacity="1" stroke-miterlimit="4"/><path stroke-linecap="butt" transform="matrix(-0.503792, 0.555602, -0.555602, -0.503792, 520.157017, 344.739788)" fill="none" stroke-linejoin="miter" d="M -0.00166186 10.499665 L 286.73727 10.500171 " stroke="#000000" stroke-width="21" stroke-opacity="1" stroke-miterlimit="4"/></svg>